<svg width="308" height="53" viewBox="0 0 308 53" fill="none" xmlns="http://www.w3.org/2000/svg">
<path fill-rule="evenodd" clip-rule="evenodd" d="M72.6621 28.6322V0.0676925H82.016C85.4051 0.0676925 87.9808 0.744572 89.8787 2.03065C91.7766 3.31673 92.7255 5.27969 92.7255 7.85185C92.7255 9.13793 92.3866 10.3563 91.7088 11.3717C91.031 12.387 90.0142 13.1992 88.7264 13.673C90.4887 14.0115 91.8443 14.7561 92.7255 15.9744C93.6067 17.1928 94.0811 18.6143 94.0811 20.2388C94.0811 22.9464 93.2 25.0447 91.3699 26.4661C89.5398 27.8876 87.0318 28.5645 83.7105 28.5645H72.6621V28.6322ZM78.3558 15.9744V24.2324H83.7105C85.2017 24.2324 86.354 23.894 87.1674 23.2171C87.9808 22.5402 88.3875 21.5926 88.3875 20.3065C88.3875 18.9527 87.9808 17.8697 87.2352 17.1252C86.4218 16.3806 85.2695 15.9744 83.6428 15.9744H78.3558ZM78.3558 11.9808H82.1516C83.7105 11.9808 84.8628 11.6424 85.6762 11.0332C86.4896 10.424 86.8963 9.47637 86.8963 8.25798C86.8963 6.90422 86.4896 5.95659 85.6762 5.34739C84.8628 4.7382 83.575 4.39974 81.9482 4.39974H78.288V11.9808H78.3558ZM108.519 28.6322C108.315 28.1584 108.112 27.6168 107.976 27.0753C107.841 26.5338 107.705 25.9923 107.637 25.4508C107.027 26.4661 106.282 27.3461 105.333 28.023C104.384 28.6999 103.232 29.0383 101.876 29.0383C99.6392 29.0383 97.9447 28.4291 96.7246 27.3461C95.5046 26.1954 94.8945 24.6385 94.8945 22.6756C94.8945 20.5772 95.7079 19.0204 97.3347 17.8697C98.9614 16.719 101.266 16.1775 104.384 16.1775H107.637V14.4853C107.637 13.47 107.366 12.6577 106.824 12.1162C106.282 11.5747 105.468 11.304 104.452 11.304C103.503 11.304 102.825 11.507 102.283 11.9808C101.808 12.4547 101.537 13.0639 101.537 13.8084H96.0468L95.979 13.673C95.9112 11.9132 96.6568 10.3563 98.3514 9.00256C99.9781 7.71648 102.147 7.0396 104.858 7.0396C107.434 7.0396 109.468 7.64879 111.027 8.93487C112.586 10.2209 113.399 12.0485 113.399 14.4176V23.1494C113.399 24.1647 113.467 25.0447 113.602 25.9246C113.738 26.8046 114.009 27.6845 114.348 28.5645H108.519V28.6322ZM103.299 24.7739C104.316 24.7739 105.197 24.5032 105.943 24.0294C106.756 23.5555 107.231 22.9463 107.57 22.3371V19.3589H104.316C103.096 19.3589 102.147 19.6296 101.537 20.2388C100.927 20.848 100.588 21.5926 100.588 22.4725C100.588 23.2171 100.792 23.7586 101.266 24.1647C101.808 24.5709 102.486 24.7739 103.299 24.7739ZM122.685 2.16603H116.991V7.37804H113.873V11.3717H116.991V22.2018C116.991 24.5709 117.534 26.2631 118.618 27.3461C119.703 28.4291 121.194 28.9706 123.16 28.9706C123.77 28.9706 124.38 28.9029 124.922 28.8352C125.464 28.7675 126.006 28.5645 126.616 28.3614L126.142 24.2324C125.871 24.3001 125.6 24.3678 125.396 24.3678C125.193 24.3678 124.922 24.4355 124.583 24.4355C124.041 24.4355 123.566 24.2324 123.227 23.894C122.888 23.5555 122.685 22.9464 122.685 22.1341V11.304H126.277V7.31035H122.685V2.16603ZM136.919 19.6973L137.123 20.848H137.258L141.325 7.37804H147.493L138.885 31.7458C138.275 33.235 137.461 34.521 136.445 35.6041C135.428 36.6194 133.869 37.1609 131.768 37.1609C131.293 37.1609 130.819 37.0932 130.412 37.0255C130.005 36.9578 129.531 36.8225 128.921 36.6871L129.599 32.4904C129.734 32.4904 129.938 32.5581 130.141 32.5581C130.344 32.5581 130.548 32.5581 130.683 32.5581C131.632 32.5581 132.378 32.355 132.852 31.8812C133.395 31.4074 133.733 30.8659 134.005 30.1213L134.682 28.4968L127.159 7.31035H133.327L136.919 19.6973ZM156.915 29.0383C158.609 29.0383 160.236 28.7676 161.66 28.3614C163.083 27.8876 164.235 27.2784 165.116 26.6015L163.557 23.0817C162.608 23.6232 161.66 24.0294 160.778 24.3001C159.897 24.5709 158.813 24.7062 157.525 24.7062C155.966 24.7062 154.814 24.2324 154 23.3525C153.187 22.4725 152.78 21.2541 152.645 19.8327L152.712 19.6973H165.388V16.719C165.388 13.7407 164.642 11.4393 163.083 9.67944C161.592 7.91955 159.355 7.0396 156.508 7.0396C153.458 7.0396 151.086 8.05493 149.391 10.0856C147.629 12.1162 146.815 14.6884 146.815 17.8697V18.682C146.815 21.728 147.696 24.2324 149.459 26.1954C151.289 28.023 153.729 29.0383 156.915 29.0383ZM156.508 11.4393C157.66 11.4393 158.474 11.7778 158.948 12.5223C159.491 13.2669 159.694 14.2146 159.694 15.433V15.8391H152.712L152.645 15.7714C152.78 14.4853 153.187 13.4023 153.797 12.6577C154.475 11.7778 155.356 11.4393 156.508 11.4393ZM174.335 20.7126L174.674 22.6756H174.809L175.216 20.7126L178.741 7.37804H184.705L177.453 28.5645H171.962L164.71 7.37804H170.675L174.335 20.7126ZM192.568 19.6973H191.145V28.5645H185.383V0H191.145V15.3653H192.432L197.516 7.37804H204.159L197.177 17.0575L205.04 28.6322H198.465L192.568 19.6973ZM217.647 28.6322H223.341C223.002 27.7522 222.799 26.8723 222.595 25.9923C222.46 25.1124 222.392 24.1647 222.392 23.2171V14.4853C222.392 12.1162 221.579 10.2886 220.02 9.00256C218.461 7.71648 216.359 7.10727 213.851 7.10727C211.208 7.10727 209.039 7.78417 207.344 9.07025C205.718 10.3563 204.904 11.9132 204.972 13.7407V13.8761H210.462C210.462 13.0638 210.734 12.4547 211.208 12.0485C211.75 11.5747 212.428 11.3717 213.377 11.3717C214.462 11.3717 215.207 11.6424 215.749 12.1839C216.292 12.7254 216.563 13.5377 216.563 14.553V16.2452H213.309C210.259 16.2452 207.887 16.7867 206.26 17.9374C204.633 19.0881 203.888 20.7126 203.888 22.7433C203.888 24.7062 204.498 26.2631 205.718 27.4138C206.938 28.5645 208.632 29.106 210.869 29.106C212.225 29.106 213.377 28.7675 214.326 28.0907C215.275 27.4138 216.088 26.5338 216.631 25.5185C216.698 26.06 216.834 26.6015 216.969 27.143C217.241 27.6168 217.444 28.0907 217.647 28.6322ZM212.428 24.7739C211.615 24.7739 210.937 24.5709 210.462 24.1647C209.988 23.7586 209.785 23.1494 209.785 22.4725C209.785 21.5926 210.123 20.848 210.734 20.2388C211.344 19.6296 212.292 19.3589 213.513 19.3589H216.766V22.3371C216.495 23.014 215.953 23.5555 215.139 24.0294C214.258 24.5032 213.377 24.7739 212.428 24.7739Z" fill="white"/>
<path fill-rule="evenodd" clip-rule="evenodd" d="M232.491 28.6323H226.798V23.5557H232.491V28.6323Z" fill="#DC662D"/>
<path fill-rule="evenodd" clip-rule="evenodd" d="M259.604 28.6324H253.843L242.32 9.34118H242.184V28.6324H236.49V0.0678711H242.184L253.707 19.2914H253.843V0.0678711H259.604V28.6324Z" fill="#DC662D"/>
<path fill-rule="evenodd" clip-rule="evenodd" d="M280.074 16.0423H269.5V24.2326H282.107V28.6324H263.739V0.0678711H282.04V4.46761H269.5V11.6426H280.074V16.0423Z" fill="#DC662D"/>
<path fill-rule="evenodd" clip-rule="evenodd" d="M308 4.46761H299.798V28.6324H294.105V4.46761H286.039V0.0678711H308V4.46761Z" fill="#DC662D"/>
<path fill-rule="evenodd" clip-rule="evenodd" d="M19.0463 0.339355H38.093L28.6036 16.8553L19.0463 33.3036L9.55688 16.8553L19.0463 0.339355Z" fill="#DC662D"/>
<path fill-rule="evenodd" clip-rule="evenodd" d="M0 33.3027H19.0467H38.0934L28.6039 49.8187H9.55722L0 33.3027Z" fill="white"/>
<path fill-rule="evenodd" clip-rule="evenodd" d="M28.604 16.8545H47.6507L57.2079 33.3027L47.6507 49.8187L38.0934 33.3027L28.604 16.8545Z" fill="white"/>
<path fill-rule="evenodd" clip-rule="evenodd" d="M80.457 42.9142H77.678V49.7507H75.3734V42.9142H72.6621V41.1543H80.457V42.9142ZM81.7449 49.7507V41.1543H85.3373C86.4896 41.1543 87.3708 41.3574 87.9808 41.7635C88.5908 42.1696 88.9297 42.7788 88.9297 43.5234C88.9297 43.9295 88.7942 44.268 88.523 44.6064C88.2519 44.9449 87.8452 45.1479 87.3708 45.351C88.0486 45.4864 88.523 45.6894 88.8619 46.0956C89.2009 46.434 89.3364 46.8401 89.3364 47.314C89.3364 48.1262 89.0653 48.7354 88.4552 49.1415C87.8452 49.5477 86.9641 49.7507 85.8118 49.7507H81.7449ZM84.1172 46.1633V47.9908H85.9473C86.354 47.9908 86.6251 47.9231 86.8285 47.7878C87.0318 47.6524 87.0996 47.3816 87.0996 47.1109C87.0996 46.8401 87.0318 46.5694 86.8285 46.434C86.6251 46.2986 86.354 46.1633 85.8795 46.1633H84.1172ZM84.1172 44.6741H85.4729C85.8795 44.6741 86.2185 44.6064 86.4218 44.471C86.6251 44.3357 86.7607 44.1326 86.7607 43.8619C86.7607 43.5234 86.6251 43.3203 86.4218 43.185C86.2185 43.0496 85.8795 42.9819 85.4051 42.9819H84.1172V44.6741ZM90.4887 45.351C90.4887 44.0649 90.8276 43.0496 91.5732 42.1696C92.3188 41.3574 93.2678 40.9512 94.5556 40.9512C95.8435 40.9512 96.7924 41.3574 97.538 42.1696C98.2836 42.9819 98.6225 44.0649 98.6225 45.351V45.4864C98.6225 46.7724 98.2836 47.8555 97.538 48.6677C96.7924 49.48 95.8435 49.8861 94.5556 49.8861C93.2678 49.8861 92.3188 49.48 91.5732 48.6677C90.8276 47.8555 90.4887 46.7724 90.4887 45.4864V45.351ZM92.7933 45.5541C92.7933 46.3663 92.9288 46.9755 93.2 47.4493C93.4711 47.9231 93.9456 48.1262 94.5556 48.1262C95.1656 48.1262 95.5723 47.8555 95.8435 47.3816C96.1146 46.9078 96.2501 46.2986 96.2501 45.4864V45.351C96.2501 44.6064 96.1146 43.9972 95.8435 43.4557C95.5723 42.9819 95.0979 42.7111 94.4878 42.7111C93.8778 42.7111 93.4711 42.9819 93.2 43.4557C92.9288 43.9295 92.7933 44.5387 92.7933 45.2833V45.5541ZM103.638 48.1262C104.045 48.1262 104.384 47.9908 104.587 47.7878C104.858 47.517 104.926 47.2463 104.926 46.8401H107.027V46.9078C107.027 47.7878 106.756 48.5323 106.079 49.0738C105.401 49.683 104.587 49.9538 103.571 49.9538C102.283 49.9538 101.334 49.5477 100.588 48.7354C99.9104 47.9231 99.5715 46.9078 99.5715 45.6218V45.351C99.5715 44.0649 99.9104 43.0496 100.588 42.2373C101.266 41.4251 102.283 41.0189 103.503 41.0189C104.52 41.0189 105.401 41.2897 106.011 41.8989C106.621 42.5081 106.96 43.3204 106.96 44.268V44.3357H104.858C104.858 43.8618 104.723 43.5234 104.52 43.2527C104.316 42.9819 103.977 42.8465 103.571 42.8465C103.028 42.8465 102.622 43.0496 102.418 43.388C102.147 43.7942 102.012 44.268 101.944 44.8772H104.384V46.2986H102.012V46.3663C102.079 46.9078 102.215 47.3816 102.418 47.7201C102.689 47.9908 103.096 48.1262 103.638 48.1262ZM119.838 42.9142H117.059V49.7507H114.755V42.9142H112.043V41.1543H119.838V42.9142ZM124.651 49.9538C123.363 49.9538 122.346 49.5477 121.668 48.8031C120.923 47.9908 120.584 46.9755 120.584 45.7571V45.4187C120.584 44.1326 120.923 43.0496 121.601 42.2373C122.278 41.4251 123.227 41.0189 124.515 41.0189C125.667 41.0189 126.549 41.3574 127.159 42.102C127.769 42.7788 128.108 43.7265 128.108 44.9449V46.1633H122.956V46.2309C123.024 46.8401 123.16 47.314 123.498 47.6524C123.837 47.9908 124.312 48.1939 124.922 48.1939C125.464 48.1939 125.871 48.1262 126.277 48.0585C126.616 47.9231 127.023 47.7878 127.43 47.5847L128.04 49.0062C127.701 49.2769 127.226 49.5477 126.616 49.6831C125.939 49.8184 125.329 49.8861 124.651 49.9538ZM124.447 42.7788C123.973 42.7788 123.634 42.9142 123.363 43.2527C123.092 43.5911 122.956 43.9972 122.888 44.5387V44.6064H125.735V44.4034C125.735 43.9295 125.6 43.5234 125.396 43.185C125.261 42.9142 124.922 42.7788 124.447 42.7788ZM136.851 41.1543V49.7507H134.547V42.9819H132.513V44.8772C132.513 46.5694 132.242 47.7878 131.768 48.6C131.226 49.4123 130.344 49.8184 129.124 49.8184H128.785V47.9908H129.057C129.599 47.9908 129.938 47.7878 130.073 47.314C130.209 46.9078 130.344 46.0956 130.344 44.8772V41.222H136.851V41.1543ZM142.274 49.9538C140.986 49.9538 139.969 49.5477 139.292 48.8031C138.546 47.9908 138.207 46.9755 138.207 45.7571V45.4187C138.207 44.1326 138.546 43.0496 139.224 42.2373C139.902 41.4251 140.851 41.0189 142.138 41.0189C143.291 41.0189 144.172 41.3574 144.782 42.102C145.392 42.7788 145.731 43.7265 145.731 44.9449V46.1633H140.579V46.2309C140.647 46.8401 140.783 47.314 141.122 47.6524C141.461 47.9908 141.935 48.1939 142.545 48.1939C143.087 48.1939 143.494 48.1262 143.901 48.0585C144.24 47.9231 144.646 47.7878 145.053 47.5847L145.663 49.0062C145.324 49.2769 144.85 49.5477 144.24 49.6831C143.63 49.8184 142.952 49.8861 142.274 49.9538ZM142.138 42.7788C141.664 42.7788 141.325 42.9142 141.054 43.2527C140.783 43.5911 140.647 43.9972 140.579 44.5387V44.6064H143.426V44.4034C143.426 43.9295 143.291 43.5234 143.087 43.185C142.884 42.9142 142.545 42.7788 142.138 42.7788ZM150.95 41.0189C152.17 41.0189 153.119 41.4251 153.797 42.2373C154.475 43.0496 154.814 44.1326 154.814 45.4187V45.5541C154.814 46.8401 154.475 47.9231 153.729 48.7354C152.983 49.5477 152.035 49.9538 150.747 49.9538C149.459 49.9538 148.442 49.5477 147.764 48.7354C147.019 47.9231 146.68 46.8401 146.68 45.5541V45.4187V45.351V45.2833V43.4557C146.68 41.6958 147.019 40.4097 147.629 39.6652C148.307 38.8529 149.255 38.4468 150.679 38.4468C151.357 38.4468 151.899 38.3791 152.238 38.2437C152.577 38.1083 152.712 37.8376 152.712 37.4992H154.475V37.5668C154.475 38.5822 154.204 39.259 153.594 39.6652C152.983 40.0713 152.035 40.2744 150.814 40.2744C150.001 40.2744 149.459 40.4774 149.052 40.7482C148.645 41.0866 148.442 41.4928 148.51 42.0343V42.102C148.781 41.8312 149.12 41.5604 149.527 41.3574C150.001 41.0866 150.476 41.0189 150.95 41.0189ZM150.747 42.7788C150.137 42.7788 149.73 43.0496 149.459 43.5234C149.188 43.9972 149.052 44.6064 149.052 45.4187V45.5541C149.052 46.3663 149.188 46.9755 149.459 47.4493C149.73 47.9231 150.204 48.1262 150.814 48.1262C151.424 48.1262 151.831 47.8555 152.102 47.3816C152.373 46.9078 152.509 46.2986 152.509 45.4864V45.351C152.509 44.6064 152.373 43.9972 152.102 43.4557C151.763 43.0496 151.357 42.7788 150.747 42.7788ZM161.253 49.7507C161.185 49.5477 161.117 49.3446 161.049 49.1415C160.982 48.9385 160.914 48.7354 160.914 48.4647C160.643 48.8708 160.372 49.2092 159.965 49.48C159.558 49.7507 159.084 49.8861 158.542 49.8861C157.66 49.8861 156.915 49.683 156.44 49.2092C155.966 48.7354 155.695 48.1262 155.695 47.314C155.695 46.5017 156.034 45.8248 156.644 45.351C157.322 44.8772 158.27 44.6741 159.491 44.6741H160.778V43.9972C160.778 43.5911 160.643 43.2527 160.439 43.0496C160.236 42.8465 159.897 42.7111 159.491 42.7111C159.084 42.7111 158.813 42.7788 158.609 42.9819C158.406 43.185 158.338 43.388 158.338 43.7265H156.101V43.6588C156.034 42.9142 156.373 42.305 157.05 41.7635C157.728 41.222 158.609 40.9512 159.694 40.9512C160.711 40.9512 161.592 41.222 162.202 41.7635C162.812 42.305 163.151 43.0496 163.151 43.9972V47.517C163.151 47.9232 163.151 48.3293 163.219 48.6677C163.286 49.0062 163.354 49.3446 163.49 49.7507H161.253ZM159.152 48.1939C159.558 48.1939 159.897 48.1262 160.236 47.9232C160.575 47.7201 160.778 47.517 160.914 47.2463V46.0279H159.626C159.152 46.0279 158.745 46.1632 158.542 46.3663C158.27 46.6371 158.135 46.9078 158.135 47.2463C158.135 47.517 158.203 47.7878 158.406 47.9232C158.542 48.1262 158.813 48.1939 159.152 48.1939ZM172.301 49.7507H169.997V47.0432C169.793 47.1109 169.59 47.1109 169.387 47.1109C169.183 47.1109 168.98 47.1109 168.844 47.1109C167.557 47.1109 166.608 46.8401 165.93 46.2986C165.252 45.7571 164.913 44.9449 164.913 43.7942V41.0866H167.218V43.7942C167.218 44.3357 167.353 44.7418 167.624 44.9449C167.895 45.1479 168.302 45.2833 168.912 45.2833C169.116 45.2833 169.319 45.2833 169.522 45.2833C169.726 45.2833 169.929 45.2156 170.132 45.2156V41.1543H172.437V49.7507H172.301ZM177.792 49.9538C176.504 49.9538 175.487 49.5477 174.809 48.8031C174.064 47.9908 173.725 46.9755 173.725 45.7571V45.4187C173.725 44.1326 174.064 43.0496 174.741 42.2373C175.419 41.4251 176.368 41.0189 177.656 41.0189C178.808 41.0189 179.689 41.3574 180.3 42.102C180.91 42.7788 181.248 43.7265 181.248 44.9449V46.1633H176.097V46.2309C176.165 46.8401 176.3 47.314 176.639 47.6524C176.978 47.9908 177.453 48.1939 178.063 48.1939C178.605 48.1939 179.012 48.1262 179.418 48.0585C179.757 47.9231 180.164 47.7878 180.571 47.5847L181.181 49.0062C180.842 49.2769 180.367 49.5477 179.757 49.6831C179.079 49.8184 178.469 49.8861 177.792 49.9538ZM177.588 42.7788C177.114 42.7788 176.775 42.9142 176.504 43.2527C176.233 43.5911 176.097 43.9972 176.029 44.5387V44.6064H178.876V44.4034C178.876 43.9295 178.741 43.5234 178.537 43.185C178.402 42.9142 178.063 42.7788 177.588 42.7788ZM189.992 49.7507H187.688V46.434H184.841V49.7507H182.536V41.1543H184.841V44.6064H187.688V41.1543H189.992V49.7507ZM199.143 49.7507H196.838V46.434H193.991V49.7507H191.687V41.1543H193.991V44.6064H196.838V41.1543H199.143V49.7507ZM208.158 41.1543V49.7507H205.853V46.7724H204.43L202.735 49.7507H200.363L202.261 46.3663C201.719 46.1632 201.312 45.8248 201.041 45.4187C200.77 45.0125 200.634 44.5387 200.634 43.9972C200.634 43.185 200.973 42.5081 201.651 41.9666C202.329 41.4251 203.21 41.1543 204.362 41.1543H208.158ZM203.006 44.0649C203.006 44.3357 203.142 44.6064 203.345 44.8095C203.549 45.0126 203.888 45.1479 204.294 45.1479H205.785V42.9142H204.294C203.888 42.9142 203.549 43.0496 203.278 43.2527C203.142 43.5234 203.006 43.7942 203.006 44.0649ZM221.443 42.9142H218.664V49.7507H216.359V42.9142H213.648V41.1543H221.443V42.9142ZM227.611 49.7507C227.543 49.5477 227.476 49.3446 227.408 49.1415C227.34 48.9385 227.272 48.7354 227.272 48.4647C227.001 48.8708 226.73 49.2092 226.323 49.48C225.917 49.7507 225.442 49.8861 224.9 49.8861C224.019 49.8861 223.273 49.683 222.799 49.2092C222.324 48.7354 222.053 48.1262 222.053 47.314C222.053 46.5017 222.392 45.8248 223.002 45.351C223.68 44.8772 224.629 44.6741 225.849 44.6741H227.137V43.9972C227.137 43.5911 227.001 43.2527 226.798 43.0496C226.594 42.8465 226.256 42.7111 225.849 42.7111C225.442 42.7111 225.171 42.7788 224.968 42.9819C224.764 43.185 224.697 43.388 224.697 43.7265H222.46V43.6588C222.392 42.9142 222.731 42.305 223.409 41.7635C224.087 41.222 224.968 40.9512 226.052 40.9512C227.069 40.9512 227.95 41.222 228.56 41.7635C229.17 42.305 229.509 43.0496 229.509 43.9972V47.517C229.509 47.9232 229.509 48.3293 229.577 48.6677C229.645 49.0062 229.712 49.3446 229.848 49.7507H227.611ZM225.51 48.1939C225.917 48.1939 226.256 48.1262 226.594 47.9232C226.933 47.7201 227.137 47.517 227.272 47.2463V46.0279H225.984C225.51 46.0279 225.103 46.1632 224.9 46.3663C224.629 46.6371 224.493 46.9078 224.493 47.2463C224.493 47.517 224.561 47.7878 224.764 47.9232C224.9 48.1262 225.171 48.1939 225.51 48.1939ZM247.132 49.7507H244.828V46.434H241.981V49.7507H239.676V41.1543H241.981V44.6064H244.828V41.1543H247.132V49.7507ZM256.147 42.9142H253.368V49.7507H251.064V42.9142H248.352V41.1543H256.147V42.9142ZM260.96 49.9538C259.672 49.9538 258.655 49.5477 257.977 48.8031C257.232 47.9908 256.893 46.9755 256.893 45.7571V45.4187C256.893 44.1326 257.232 43.0496 257.91 42.2373C258.587 41.4251 259.536 41.0189 260.824 41.0189C261.977 41.0189 262.858 41.3574 263.468 42.102C264.078 42.7788 264.417 43.7265 264.417 44.9449V46.1633H259.265V46.2309C259.333 46.8401 259.469 47.314 259.807 47.6524C260.146 47.9908 260.621 48.1939 261.231 48.1939C261.773 48.1939 262.18 48.1262 262.587 48.0585C262.925 47.9231 263.332 47.7878 263.739 47.5847L264.349 49.0062C264.01 49.2769 263.536 49.5477 262.925 49.6831C262.315 49.8184 261.638 49.8861 260.96 49.9538ZM260.824 42.7788C260.35 42.7788 260.011 42.9142 259.74 43.2527C259.469 43.5911 259.333 43.9972 259.265 44.5387V44.6064H262.112V44.4034C262.112 43.9295 261.977 43.5234 261.773 43.185C261.638 42.9142 261.299 42.7788 260.824 42.7788ZM273.499 45.6894C273.499 46.9755 273.228 47.9908 272.618 48.7354C272.008 49.48 271.195 49.8861 270.178 49.8861C269.704 49.8861 269.297 49.8184 268.958 49.6154C268.619 49.48 268.28 49.2092 268.077 48.8708V52.9998H265.772V41.0866H267.874L268.009 42.102C268.28 41.6958 268.551 41.4251 268.958 41.222C269.297 41.0189 269.704 40.8836 270.178 40.8836C271.263 40.8836 272.076 41.2897 272.686 42.102C273.296 42.9142 273.567 43.9972 273.567 45.351V45.6894H273.499ZM271.195 45.5541C271.195 44.7418 271.059 44.0649 270.788 43.5911C270.517 43.1173 270.11 42.8465 269.568 42.8465C269.229 42.8465 268.89 42.9142 268.687 43.0496C268.416 43.185 268.212 43.388 268.077 43.6588V47.4493C268.212 47.7201 268.416 47.8555 268.687 47.9908C268.958 48.1262 269.229 48.1939 269.568 48.1939C270.11 48.1939 270.517 47.9908 270.788 47.517C271.059 47.1109 271.195 46.5017 271.195 45.7571V45.5541ZM282.379 49.7507H280.074V46.434H277.227V49.7507H274.923V41.1543H277.227V44.6064H280.074V41.1543H282.379V49.7507ZM287.869 49.9538C286.581 49.9538 285.565 49.5477 284.887 48.8031C284.141 47.9908 283.802 46.9755 283.802 45.7571V45.4187C283.802 44.1326 284.141 43.0496 284.819 42.2373C285.497 41.4251 286.446 41.0189 287.734 41.0189C288.886 41.0189 289.767 41.3574 290.377 42.102C290.987 42.7788 291.326 43.7265 291.326 44.9449V46.1633H286.175V46.2309C286.242 46.8401 286.378 47.314 286.717 47.6524C287.056 47.9908 287.53 48.1939 288.14 48.1939C288.683 48.1939 289.089 48.1262 289.496 48.0585C289.835 47.9231 290.242 47.7878 290.648 47.5847L291.258 49.0062C290.919 49.2769 290.445 49.5477 289.835 49.6831C289.225 49.8184 288.547 49.8861 287.869 49.9538ZM287.734 42.7788C287.259 42.7788 286.92 42.9142 286.649 43.2527C286.378 43.5911 286.242 43.9972 286.175 44.5387V44.6064H289.021V44.4034C289.021 43.9295 288.886 43.5234 288.683 43.185C288.479 42.9142 288.14 42.7788 287.734 42.7788ZM299.867 42.9142H297.087V49.7507H294.783V42.9142H292.072V41.1543H299.867V42.9142ZM237.778 49.7507H235.474V41.1543H237.778V49.7507ZM237.778 39.1237H235.474V37.3638H237.778V39.1237Z" fill="white"/>
</svg>
