<svg width="158" height="28" viewBox="0 0 158 28" fill="none" xmlns="http://www.w3.org/2000/svg">
<path fill-rule="evenodd" clip-rule="evenodd" d="M37.2744 14.6879V0.0347253H42.0728C43.8114 0.0347253 45.1327 0.381955 46.1063 1.0417C47.0799 1.70144 47.5667 2.70841 47.5667 4.02789C47.5667 4.68764 47.3928 5.31266 47.0451 5.83351C46.6974 6.35435 46.1758 6.77103 45.5152 7.01409C46.4192 7.18771 47.1146 7.56966 47.5667 8.19468C48.0187 8.8197 48.2621 9.54889 48.2621 10.3822C48.2621 11.7712 47.8101 12.8476 46.8712 13.5768C45.9324 14.306 44.6459 14.6532 42.9421 14.6532H37.2744V14.6879ZM40.1952 8.19468V12.4309H42.9421C43.7071 12.4309 44.2982 12.2573 44.7154 11.9101C45.1327 11.5628 45.3413 11.0767 45.3413 10.417C45.3413 9.7225 45.1327 9.16693 44.7502 8.78498C44.333 8.40302 43.7418 8.19468 42.9073 8.19468H40.1952ZM40.1952 6.14601H42.1424C42.9421 6.14601 43.5332 5.9724 43.9505 5.65989C44.3677 5.34738 44.5764 4.86125 44.5764 4.23624C44.5764 3.54177 44.3677 3.05565 43.9505 2.74314C43.5332 2.43063 42.8726 2.25701 42.0381 2.25701H40.1604V6.14601H40.1952ZM55.6683 14.6879C55.564 14.4449 55.4597 14.1671 55.3902 13.8893C55.3206 13.6115 55.2511 13.3337 55.2163 13.0559C54.9034 13.5768 54.5209 14.0282 54.0341 14.3754C53.5473 14.7226 52.9562 14.8963 52.2608 14.8963C51.1133 14.8963 50.244 14.5838 49.6182 14.0282C48.9923 13.4379 48.6793 12.6392 48.6793 11.6323C48.6793 10.5559 49.0966 9.75723 49.9311 9.16694C50.7656 8.57664 51.9478 8.29886 53.5473 8.29886H55.2163V7.43078C55.2163 6.90993 55.0772 6.49325 54.7991 6.21546C54.5209 5.93768 54.1036 5.79878 53.5821 5.79878C53.0953 5.79878 52.7476 5.90295 52.4694 6.14601C52.226 6.38907 52.0869 6.70159 52.0869 7.08354H49.2705L49.2357 7.01409C49.2009 6.11129 49.5834 5.31266 50.4527 4.61819C51.2872 3.95845 52.3999 3.61122 53.7907 3.61122C55.112 3.61122 56.1551 3.92373 56.9549 4.58347C57.7546 5.24321 58.1719 6.18074 58.1719 7.39605V11.8753C58.1719 12.3962 58.2066 12.8476 58.2762 13.299C58.3457 13.7504 58.4848 14.2018 58.6587 14.6532H55.6683V14.6879ZM52.991 12.7087C53.5125 12.7087 53.9646 12.5698 54.347 12.3267C54.7643 12.0837 55.0077 11.7712 55.1815 11.4587V9.93084H53.5125C52.8867 9.93084 52.3999 10.0697 52.0869 10.3822C51.774 10.6948 51.6001 11.0767 51.6001 11.5281C51.6001 11.9101 51.7044 12.1879 51.9478 12.3962C52.226 12.6045 52.5737 12.7087 52.991 12.7087ZM62.9355 1.11115H60.0147V3.78484H58.4153V5.83351H60.0147V11.3892C60.0147 12.6045 60.2929 13.4726 60.8492 14.0282C61.4056 14.5838 62.1705 14.8615 63.1789 14.8615C63.4918 14.8615 63.8048 14.8268 64.083 14.7921C64.3611 14.7574 64.6393 14.6532 64.9522 14.549L64.7088 12.4309C64.5698 12.4656 64.4307 12.5004 64.3264 12.5004C64.222 12.5004 64.083 12.5351 63.9091 12.5351C63.6309 12.5351 63.3875 12.4309 63.2137 12.2573C63.0398 12.0837 62.9355 11.7712 62.9355 11.3545V5.79878H64.7784V3.75011H62.9355V1.11115ZM70.2374 10.1045L70.3418 10.6948H70.4113L72.4976 3.78484H75.6617L71.2458 16.2852C70.9329 17.0491 70.5156 17.7088 69.9941 18.2644C69.4725 18.7853 68.6728 19.0631 67.5948 19.0631C67.3514 19.0631 67.108 19.0283 66.8994 18.9936C66.6908 18.9589 66.4474 18.8894 66.1345 18.82L66.4822 16.6671C66.5517 16.6671 66.656 16.7019 66.7603 16.7019C66.8646 16.7019 66.969 16.7019 67.0385 16.7019C67.5253 16.7019 67.9078 16.5977 68.1512 16.3546C68.4293 16.1116 68.6032 15.8338 68.7423 15.4518L69.09 14.6185L65.2304 3.75011H68.3946L70.2374 10.1045ZM80.4949 14.8963C81.3642 14.8963 82.1987 14.7574 82.9289 14.549C83.6591 14.306 84.2502 13.9935 84.7022 13.6462L83.9025 11.8406C83.4157 12.1184 82.9289 12.3267 82.4769 12.4656C82.0249 12.6045 81.4685 12.674 80.8079 12.674C80.0081 12.674 79.417 12.4309 78.9998 11.9795C78.5825 11.5281 78.3739 10.9031 78.3044 10.1739L78.3391 10.1045H84.8413V8.57664C84.8413 7.04882 84.4588 5.86823 83.6591 4.96543C82.8941 4.06262 81.7467 3.61122 80.2863 3.61122C78.7216 3.61122 77.5046 4.13207 76.6353 5.17377C75.7313 6.21546 75.314 7.53495 75.314 9.16694V9.58361C75.314 11.1462 75.7661 12.4309 76.6701 13.4379C77.6089 14.3754 78.8607 14.8963 80.4949 14.8963ZM80.2863 5.86823C80.8774 5.86823 81.2947 6.04184 81.5381 6.42379C81.8162 6.80575 81.9205 7.29188 81.9205 7.9169V8.12524H78.3391L78.3044 8.09051C78.3739 7.43077 78.5825 6.8752 78.8955 6.49324C79.2432 6.04184 79.6952 5.86823 80.2863 5.86823ZM89.4311 10.6253L89.605 11.6323H89.6745L89.8831 10.6253L91.6912 3.78484H94.7511L91.0306 14.6532H88.2141L84.4936 3.78484H87.5535L89.4311 10.6253ZM98.7845 10.1045H98.0543V14.6532H95.0988V0H98.0543V7.88217H98.715L101.323 3.78484H104.73L101.149 8.75025L105.182 14.6879H101.81L98.7845 10.1045ZM111.65 14.6879H114.571C114.397 14.2365 114.292 13.7851 114.188 13.3337C114.119 12.8823 114.084 12.3962 114.084 11.9101V7.43078C114.084 6.21546 113.667 5.27793 112.867 4.61819C112.067 3.95845 110.989 3.64594 109.703 3.64594C108.347 3.64594 107.234 3.99318 106.365 4.65292C105.53 5.31266 105.113 6.11129 105.148 7.04882V7.11826H107.964C107.964 6.70158 108.103 6.38908 108.347 6.18074C108.625 5.93768 108.972 5.83351 109.459 5.83351C110.016 5.83351 110.398 5.97239 110.676 6.25018C110.954 6.52796 111.094 6.94464 111.094 7.46549V8.33357H109.425C107.86 8.33357 106.643 8.61136 105.808 9.20165C104.974 9.79195 104.591 10.6253 104.591 11.667C104.591 12.674 104.904 13.4726 105.53 14.0629C106.156 14.6532 107.025 14.931 108.173 14.931C108.868 14.931 109.459 14.7574 109.946 14.4101C110.433 14.0629 110.85 13.6115 111.128 13.0907C111.163 13.3684 111.233 13.6462 111.302 13.924C111.441 14.1671 111.546 14.4101 111.65 14.6879ZM108.972 12.7087C108.555 12.7087 108.208 12.6045 107.964 12.3962C107.721 12.1879 107.616 11.8753 107.616 11.5281C107.616 11.0767 107.79 10.6948 108.103 10.3822C108.416 10.0697 108.903 9.93084 109.529 9.93084H111.198V11.4587C111.059 11.8059 110.781 12.0837 110.363 12.3267C109.911 12.5698 109.459 12.7087 108.972 12.7087Z" fill="white"/>
<path fill-rule="evenodd" clip-rule="evenodd" d="M119.265 14.6877H116.344V12.0835H119.265V14.6877Z" fill="#DC662D"/>
<path fill-rule="evenodd" clip-rule="evenodd" d="M133.173 14.6879H130.218L124.307 4.79175H124.237V14.6879H121.316V0.034668H124.237L130.148 9.89606H130.218V0.034668H133.173V14.6879Z" fill="#DC662D"/>
<path fill-rule="evenodd" clip-rule="evenodd" d="M143.674 8.22935H138.25V12.4309H144.717V14.6879H135.294V0.034668H144.683V2.29168H138.25V5.97234H143.674V8.22935Z" fill="#DC662D"/>
<path fill-rule="evenodd" clip-rule="evenodd" d="M158 2.29168H153.792V14.6879H150.872V2.29168H146.734V0.034668H158V2.29168Z" fill="#DC662D"/>
<path fill-rule="evenodd" clip-rule="evenodd" d="M9.77031 0.173828H19.541L14.673 8.6463L9.77031 17.084L4.90234 8.6463L9.77031 0.173828Z" fill="#DC662D"/>
<path fill-rule="evenodd" clip-rule="evenodd" d="M0 17.084H9.77069H19.5414L14.6734 25.5564H4.90273L0 17.084Z" fill="white"/>
<path fill-rule="evenodd" clip-rule="evenodd" d="M14.6733 8.646H24.444L29.3468 17.0837L24.444 25.5562L19.5413 17.0837L14.6733 8.646Z" fill="white"/>
<path fill-rule="evenodd" clip-rule="evenodd" d="M41.2731 22.0143H39.8475V25.5213H38.6653V22.0143H37.2744V21.1115H41.2731V22.0143ZM41.9337 25.5213V21.1115H43.7766C44.3677 21.1115 44.8198 21.2157 45.1327 21.424C45.4456 21.6323 45.6195 21.9449 45.6195 22.3268C45.6195 22.5351 45.5499 22.7088 45.4109 22.8824C45.2718 23.056 45.0632 23.1602 44.8198 23.2643C45.1675 23.3338 45.4109 23.4379 45.5847 23.6463C45.7586 23.8199 45.8281 24.0282 45.8281 24.2713C45.8281 24.688 45.689 25.0005 45.3761 25.2088C45.0631 25.4172 44.6111 25.5213 44.02 25.5213H41.9337ZM43.1507 23.681V24.6185H44.0896C44.2982 24.6185 44.4373 24.5838 44.5416 24.5144C44.6459 24.4449 44.6807 24.306 44.6807 24.1671C44.6807 24.0282 44.6459 23.8893 44.5416 23.8199C44.4373 23.7505 44.2982 23.681 44.0548 23.681H43.1507ZM43.1507 22.9171H43.8462C44.0548 22.9171 44.2286 22.8824 44.333 22.8129C44.4373 22.7435 44.5068 22.6393 44.5068 22.5004C44.5068 22.3268 44.4373 22.2226 44.333 22.1532C44.2286 22.0837 44.0548 22.049 43.8114 22.049H43.1507V22.9171ZM46.4192 23.2643C46.4192 22.6046 46.5931 22.0837 46.9756 21.6323C47.358 21.2157 47.8448 21.0073 48.5055 21.0073C49.1661 21.0073 49.6529 21.2157 50.0354 21.6323C50.4179 22.049 50.5918 22.6046 50.5918 23.2643V23.3338C50.5918 23.9935 50.4179 24.5491 50.0354 24.9658C49.6529 25.3825 49.1661 25.5908 48.5055 25.5908C47.8448 25.5908 47.358 25.3825 46.9756 24.9658C46.5931 24.5491 46.4192 23.9935 46.4192 23.3338V23.2643ZM47.6014 23.3685C47.6014 23.7852 47.671 24.0977 47.8101 24.3407C47.9491 24.5838 48.1925 24.688 48.5055 24.688C48.8184 24.688 49.0271 24.5491 49.1661 24.306C49.3052 24.063 49.3748 23.7505 49.3748 23.3338V23.2643C49.3748 22.8824 49.3052 22.5699 49.1661 22.2921C49.0271 22.049 48.7837 21.9101 48.4707 21.9101C48.1578 21.9101 47.9491 22.049 47.8101 22.2921C47.671 22.5351 47.6014 22.8477 47.6014 23.2296V23.3685ZM53.1648 24.688C53.3735 24.688 53.5473 24.6185 53.6516 24.5144C53.7907 24.3755 53.8255 24.2366 53.8255 24.0282H54.9034V24.063C54.9034 24.5144 54.7643 24.8963 54.4166 25.1741C54.0689 25.4866 53.6516 25.6255 53.1301 25.6255C52.4694 25.6255 51.9826 25.4172 51.6001 25.0005C51.2524 24.5838 51.0786 24.063 51.0786 23.4032V23.2643C51.0786 22.6046 51.2524 22.0837 51.6001 21.6671C51.9478 21.2504 52.4694 21.042 53.0953 21.042C53.6168 21.042 54.0689 21.1809 54.3818 21.4935C54.6948 21.806 54.8686 22.2226 54.8686 22.7088V22.7435H53.7907C53.7907 22.5004 53.7212 22.3268 53.6168 22.1879C53.5125 22.049 53.3387 21.9796 53.1301 21.9796C52.8519 21.9796 52.6433 22.0837 52.5389 22.2574C52.3999 22.4657 52.3303 22.7088 52.2956 23.0213H53.5473V23.7505H52.3303V23.7852C52.3651 24.063 52.4346 24.306 52.5389 24.4796C52.678 24.6185 52.8867 24.688 53.1648 24.688ZM61.4751 22.0143H60.0495V25.5213H58.8673V22.0143H57.4764V21.1115H61.4751V22.0143ZM63.9439 25.6255C63.2832 25.6255 62.7617 25.4172 62.4139 25.0352C62.0315 24.6185 61.8576 24.0977 61.8576 23.4727V23.2991C61.8576 22.6393 62.0315 22.0837 62.3792 21.6671C62.7269 21.2504 63.2137 21.042 63.8743 21.042C64.4654 21.042 64.9175 21.2157 65.2304 21.5976C65.5433 21.9448 65.7172 22.431 65.7172 23.056V23.681H63.0746V23.7157C63.1094 24.0282 63.1789 24.2713 63.3528 24.4449C63.5266 24.6185 63.77 24.7227 64.083 24.7227C64.3611 24.7227 64.5698 24.688 64.7784 24.6533C64.9522 24.5838 65.1609 24.5144 65.3695 24.4102L65.6824 25.1394C65.5086 25.2783 65.2652 25.4172 64.9522 25.4866C64.6045 25.5561 64.2916 25.5908 63.9439 25.6255ZM63.8396 21.9448C63.5962 21.9448 63.4223 22.0143 63.2832 22.1879C63.1441 22.3615 63.0746 22.5699 63.0398 22.8477V22.8824H64.5002V22.7782C64.5002 22.5351 64.4307 22.3268 64.3264 22.1532C64.2568 22.0143 64.083 21.9448 63.8396 21.9448ZM70.2027 21.1115V25.5213H69.0205V22.049H67.9773V23.0213C67.9773 23.8894 67.8382 24.5144 67.5949 24.931C67.3167 25.3477 66.8646 25.5561 66.2388 25.5561H66.0649V24.6185H66.204C66.4822 24.6185 66.656 24.5144 66.7256 24.2713C66.7951 24.063 66.8647 23.6463 66.8647 23.0213V21.1462H70.2027V21.1115ZM72.9844 25.6255C72.3237 25.6255 71.8022 25.4172 71.4544 25.0352C71.072 24.6185 70.8981 24.0977 70.8981 23.4727V23.2991C70.8981 22.6393 71.072 22.0837 71.4197 21.6671C71.7674 21.2504 72.2542 21.042 72.9148 21.042C73.5059 21.042 73.958 21.2157 74.2709 21.5976C74.5838 21.9448 74.7577 22.431 74.7577 23.056V23.681H72.1151V23.7157C72.1499 24.0282 72.2194 24.2713 72.3933 24.4449C72.5671 24.6185 72.8105 24.7227 73.1235 24.7227C73.4016 24.7227 73.6103 24.688 73.8189 24.6533C73.9927 24.5838 74.2014 24.5144 74.41 24.4102L74.7229 25.1394C74.5491 25.2783 74.3057 25.4172 73.9927 25.4866C73.6798 25.5561 73.3321 25.5908 72.9844 25.6255ZM72.9148 21.9448C72.6714 21.9448 72.4976 22.0143 72.3585 22.1879C72.2194 22.3615 72.1499 22.5699 72.1151 22.8477V22.8824H73.5755V22.7782C73.5755 22.5351 73.5059 22.3268 73.4016 22.1532C73.2973 22.0143 73.1235 21.9448 72.9148 21.9448ZM77.4351 21.042C78.061 21.042 78.5478 21.2504 78.8955 21.6671C79.2432 22.0837 79.417 22.6393 79.417 23.2991V23.3685C79.417 24.0282 79.2432 24.5838 78.8607 25.0005C78.4782 25.4172 77.9914 25.6255 77.3308 25.6255C76.6701 25.6255 76.1485 25.4172 75.8008 25.0005C75.4184 24.5838 75.2445 24.0282 75.2445 23.3685V23.2991V23.2643V23.2296V22.2921C75.2445 21.3893 75.4184 20.7295 75.7313 20.3476C76.079 19.9309 76.5658 19.7226 77.296 19.7226C77.6437 19.7226 77.9219 19.6878 78.0957 19.6184C78.2696 19.5489 78.3391 19.4101 78.3391 19.2364H79.2432V19.2712C79.2432 19.792 79.1041 20.1392 78.7912 20.3476C78.4782 20.5559 77.9914 20.6601 77.3655 20.6601C76.9483 20.6601 76.6701 20.7643 76.4615 20.9032C76.2529 21.0768 76.1485 21.2851 76.1833 21.5629V21.5976C76.3224 21.4587 76.4963 21.3198 76.7049 21.2157C76.9483 21.0768 77.1917 21.042 77.4351 21.042ZM77.3308 21.9448C77.0178 21.9448 76.8092 22.0837 76.6701 22.3268C76.531 22.5699 76.4615 22.8824 76.4615 23.2991V23.3685C76.4615 23.7852 76.531 24.0977 76.6701 24.3407C76.8092 24.5838 77.0526 24.688 77.3655 24.688C77.6785 24.688 77.8871 24.5491 78.0262 24.306C78.1653 24.063 78.2348 23.7505 78.2348 23.3338V23.2643C78.2348 22.8824 78.1653 22.5699 78.0262 22.2921C77.8523 22.0837 77.6437 21.9448 77.3308 21.9448ZM82.7203 25.5213C82.6855 25.4172 82.6507 25.313 82.616 25.2088C82.5812 25.1047 82.5464 25.0005 82.5464 24.8616C82.4074 25.0699 82.2683 25.2436 82.0596 25.3824C81.851 25.5213 81.6076 25.5908 81.3295 25.5908C80.8774 25.5908 80.4949 25.4866 80.2515 25.2436C80.0081 25.0005 79.8691 24.688 79.8691 24.2713C79.8691 23.8546 80.0429 23.5074 80.3559 23.2643C80.7036 23.0213 81.1904 22.9171 81.8162 22.9171H82.4769V22.5699C82.4769 22.3615 82.4074 22.1879 82.303 22.0837C82.1987 21.9796 82.0249 21.9101 81.8162 21.9101C81.6076 21.9101 81.4685 21.9448 81.3642 22.049C81.2599 22.1532 81.2251 22.2574 81.2251 22.431H80.0777V22.3962C80.0429 22.0143 80.2168 21.7018 80.5645 21.424C80.9122 21.1462 81.3642 21.0073 81.9206 21.0073C82.4421 21.0073 82.8941 21.1462 83.2071 21.424C83.52 21.7018 83.6939 22.0837 83.6939 22.5699V24.3755C83.6939 24.5838 83.6939 24.7922 83.7287 24.9658C83.7634 25.1394 83.7982 25.313 83.8677 25.5213H82.7203ZM81.6424 24.7227C81.851 24.7227 82.0249 24.688 82.1987 24.5838C82.3726 24.4796 82.4769 24.3755 82.5464 24.2366V23.6116H81.8858C81.6424 23.6116 81.4338 23.681 81.3295 23.7852C81.1904 23.9241 81.1208 24.063 81.1208 24.2366C81.1208 24.3755 81.1556 24.5144 81.2599 24.5838C81.3294 24.688 81.4685 24.7227 81.6424 24.7227ZM88.388 25.5213H87.2058V24.1324C87.1015 24.1671 86.9971 24.1671 86.8928 24.1671C86.7885 24.1671 86.6842 24.1671 86.6147 24.1671C85.954 24.1671 85.4672 24.0282 85.1195 23.7505C84.7718 23.4727 84.5979 23.056 84.5979 22.4657V21.0768H85.7802V22.4657C85.7802 22.7435 85.8497 22.9518 85.9888 23.056C86.1279 23.1602 86.3365 23.2296 86.6494 23.2296C86.7537 23.2296 86.8581 23.2296 86.9624 23.2296C87.0667 23.2296 87.171 23.1949 87.2753 23.1949V21.1115H88.4575V25.5213H88.388ZM91.2045 25.6255C90.5438 25.6255 90.0222 25.4172 89.6745 25.0352C89.292 24.6185 89.1182 24.0977 89.1182 23.4727V23.2991C89.1182 22.6393 89.292 22.0837 89.6398 21.6671C89.9875 21.2504 90.4743 21.042 91.1349 21.042C91.726 21.042 92.178 21.2157 92.491 21.5976C92.8039 21.9448 92.9778 22.431 92.9778 23.056V23.681H90.3352V23.7157C90.3699 24.0282 90.4395 24.2713 90.6133 24.4449C90.7872 24.6185 91.0306 24.7227 91.3435 24.7227C91.6217 24.7227 91.8303 24.688 92.039 24.6533C92.2128 24.5838 92.4214 24.5144 92.6301 24.4102L92.943 25.1394C92.7692 25.2783 92.5258 25.4172 92.2128 25.4866C91.8651 25.5561 91.5522 25.5908 91.2045 25.6255ZM91.1001 21.9448C90.8567 21.9448 90.6829 22.0143 90.5438 22.1879C90.4047 22.3615 90.3352 22.5699 90.3004 22.8477V22.8824H91.7608V22.7782C91.7608 22.5351 91.6912 22.3268 91.5869 22.1532C91.5174 22.0143 91.3435 21.9448 91.1001 21.9448ZM97.4633 25.5213H96.281V23.8199H94.8206V25.5213H93.6384V21.1115H94.8206V22.8824H96.281V21.1115H97.4633V25.5213ZM102.157 25.5213H100.975V23.8199H99.5148V25.5213H98.3325V21.1115H99.5148V22.8824H100.975V21.1115H102.157V25.5213ZM106.782 21.1115V25.5213H105.6V23.9935H104.87L104 25.5213H102.783L103.757 23.7852C103.479 23.681 103.27 23.5074 103.131 23.2991C102.992 23.0907 102.922 22.8476 102.922 22.5699C102.922 22.1532 103.096 21.806 103.444 21.5282C103.792 21.2504 104.244 21.1115 104.835 21.1115H106.782ZM104.139 22.6046C104.139 22.7435 104.209 22.8824 104.313 22.9865C104.417 23.0907 104.591 23.1602 104.8 23.1602H105.565V22.0143H104.8C104.591 22.0143 104.417 22.0837 104.278 22.1879C104.209 22.3268 104.139 22.4657 104.139 22.6046ZM113.597 22.0143H112.171V25.5213H110.989V22.0143H109.598V21.1115H113.597V22.0143ZM116.761 25.5213C116.726 25.4172 116.692 25.313 116.657 25.2088C116.622 25.1047 116.587 25.0005 116.587 24.8616C116.448 25.0699 116.309 25.2436 116.101 25.3824C115.892 25.5213 115.649 25.5908 115.37 25.5908C114.918 25.5908 114.536 25.4866 114.292 25.2436C114.049 25.0005 113.91 24.688 113.91 24.2713C113.91 23.8546 114.084 23.5074 114.397 23.2643C114.745 23.0213 115.231 22.9171 115.857 22.9171H116.518V22.5699C116.518 22.3615 116.448 22.1879 116.344 22.0837C116.24 21.9796 116.066 21.9101 115.857 21.9101C115.649 21.9101 115.509 21.9448 115.405 22.049C115.301 22.1532 115.266 22.2574 115.266 22.431H114.119V22.3962C114.084 22.0143 114.258 21.7018 114.605 21.424C114.953 21.1462 115.405 21.0073 115.961 21.0073C116.483 21.0073 116.935 21.1462 117.248 21.424C117.561 21.7018 117.735 22.0837 117.735 22.5699V24.3755C117.735 24.5838 117.735 24.7922 117.77 24.9658C117.804 25.1394 117.839 25.313 117.909 25.5213H116.761ZM115.683 24.7227C115.892 24.7227 116.066 24.688 116.24 24.5838C116.414 24.4796 116.518 24.3755 116.587 24.2366V23.6116H115.927C115.683 23.6116 115.475 23.681 115.37 23.7852C115.231 23.9241 115.162 24.063 115.162 24.2366C115.162 24.3755 115.197 24.5144 115.301 24.5838C115.37 24.688 115.509 24.7227 115.683 24.7227ZM126.775 25.5213H125.593V23.8199H124.133V25.5213H122.951V21.1115H124.133V22.8824H125.593V21.1115H126.775V25.5213ZM131.4 22.0143H129.974V25.5213H128.792V22.0143H127.401V21.1115H131.4V22.0143ZM133.869 25.6255C133.208 25.6255 132.686 25.4172 132.339 25.0352C131.956 24.6185 131.782 24.0977 131.782 23.4727V23.2991C131.782 22.6393 131.956 22.0837 132.304 21.6671C132.652 21.2504 133.138 21.042 133.799 21.042C134.39 21.042 134.842 21.2157 135.155 21.5976C135.468 21.9448 135.642 22.431 135.642 23.056V23.681H132.999V23.7157C133.034 24.0282 133.104 24.2713 133.278 24.4449C133.451 24.6185 133.695 24.7227 134.008 24.7227C134.286 24.7227 134.495 24.688 134.703 24.6533C134.877 24.5838 135.086 24.5144 135.294 24.4102L135.607 25.1394C135.433 25.2783 135.19 25.4172 134.877 25.4866C134.564 25.5561 134.216 25.5908 133.869 25.6255ZM133.799 21.9448C133.556 21.9448 133.382 22.0143 133.243 22.1879C133.104 22.3615 133.034 22.5699 132.999 22.8477V22.8824H134.46V22.7782C134.46 22.5351 134.39 22.3268 134.286 22.1532C134.216 22.0143 134.042 21.9448 133.799 21.9448ZM140.301 23.4379C140.301 24.0977 140.162 24.6185 139.849 25.0005C139.536 25.3824 139.119 25.5908 138.598 25.5908C138.354 25.5908 138.145 25.5561 137.972 25.4519C137.798 25.3825 137.624 25.2436 137.52 25.0699V27.1881H136.337V21.0768H137.415L137.485 21.5976C137.624 21.3893 137.763 21.2504 137.972 21.1462C138.145 21.0421 138.354 20.9726 138.598 20.9726C139.154 20.9726 139.571 21.1809 139.884 21.5976C140.197 22.0143 140.336 22.5699 140.336 23.2643V23.4379H140.301ZM139.119 23.3685C139.119 22.9518 139.05 22.6046 138.91 22.3615C138.771 22.1185 138.563 21.9796 138.285 21.9796C138.111 21.9796 137.937 22.0143 137.833 22.0837C137.693 22.1532 137.589 22.2574 137.52 22.3962V24.3407C137.589 24.4796 137.693 24.5491 137.833 24.6185C137.972 24.688 138.111 24.7227 138.285 24.7227C138.563 24.7227 138.771 24.6185 138.91 24.3755C139.05 24.1671 139.119 23.8546 139.119 23.4727V23.3685ZM144.856 25.5213H143.674V23.8199H142.214V25.5213H141.032V21.1115H142.214V22.8824H143.674V21.1115H144.856V25.5213ZM147.673 25.6255C147.012 25.6255 146.491 25.4172 146.143 25.0352C145.76 24.6185 145.587 24.0977 145.587 23.4727V23.2991C145.587 22.6393 145.76 22.0837 146.108 21.6671C146.456 21.2504 146.943 21.042 147.603 21.042C148.194 21.042 148.646 21.2157 148.959 21.5976C149.272 21.9448 149.446 22.431 149.446 23.056V23.681H146.803V23.7157C146.838 24.0282 146.908 24.2713 147.082 24.4449C147.256 24.6185 147.499 24.7227 147.812 24.7227C148.09 24.7227 148.299 24.688 148.507 24.6533C148.681 24.5838 148.89 24.5144 149.098 24.4102L149.411 25.1394C149.237 25.2783 148.994 25.4172 148.681 25.4866C148.368 25.5561 148.02 25.5908 147.673 25.6255ZM147.603 21.9448C147.36 21.9448 147.186 22.0143 147.047 22.1879C146.908 22.3615 146.838 22.5699 146.803 22.8477V22.8824H148.264V22.7782C148.264 22.5351 148.194 22.3268 148.09 22.1532C147.986 22.0143 147.812 21.9448 147.603 21.9448ZM153.827 22.0143H152.402V25.5213H151.219V22.0143H149.829V21.1115H153.827V22.0143ZM121.977 25.5213H120.795V21.1115H121.977V25.5213ZM121.977 20.0698H120.795V19.167H121.977V20.0698Z" fill="white"/>
</svg>
