<svg width="32" height="32" viewBox="0 0 32 32" fill="none" xmlns="http://www.w3.org/2000/svg">
<path fill-rule="evenodd" clip-rule="evenodd" d="M31.0742 16.9544L28.9753 14.4879C28.5563 13.996 28.412 13.3282 28.5893 12.7016L29.4296 9.73445C30.1415 7.22093 28.2453 4.72404 25.666 4.8176L22.4735 4.93442C21.8478 4.95772 21.2574 4.66457 20.8892 4.14941L19.051 1.58225C17.5407 -0.525877 14.4606 -0.525049 12.9508 1.58225L11.1123 4.14941C10.7444 4.66417 10.1526 4.95732 9.52834 4.93442L6.33579 4.81717C3.7651 4.72364 1.85829 7.21387 2.57217 9.73445L3.41227 12.7016C3.58978 13.3278 3.44546 13.996 3.02649 14.4879L0.927548 16.9544C-0.78004 18.9611 -0.0327527 22.068 2.37417 23.0522L5.15773 24.1902C5.75936 24.4364 6.20076 24.994 6.31016 25.6451L6.83922 28.7986C7.27993 31.4248 10.1485 32.8131 12.4228 31.5L15.0752 29.969C15.646 29.6393 16.3555 29.6393 16.9264 29.969L19.5791 31.5C21.8448 32.8081 24.7199 31.4356 25.1624 28.7986L25.6916 25.6451C25.801 24.994 26.2424 24.4364 26.8438 24.1902L29.6274 23.0522C32.0367 22.0667 32.7803 18.9594 31.0742 16.9544ZM28.9208 21.2568L26.1373 22.3944C24.928 22.8888 24.0403 24.009 23.8207 25.3179L23.2915 28.473C23.0714 29.7828 21.6477 30.4705 20.5144 29.8156L17.8617 28.2846C16.714 27.6227 15.2878 27.6214 14.1401 28.2846L11.4874 29.8156C10.353 30.4705 8.93017 29.7815 8.71042 28.473L8.18104 25.3195C7.9613 24.009 7.07383 22.8888 5.86452 22.3944L3.08096 21.2568C1.87809 20.764 1.51622 19.2168 2.36146 18.2235L4.46044 15.7565C5.30274 14.7669 5.59282 13.4234 5.23614 12.1648L4.39579 9.19765C4.04194 7.9486 4.98262 6.70742 6.26768 6.75232L9.46012 6.86874C10.7142 6.91532 11.9054 6.32446 12.6456 5.29118L14.4839 2.72402C15.2352 1.67498 16.767 1.67498 17.5179 2.72402L19.3562 5.29118C20.0964 6.32446 21.2874 6.91532 22.5417 6.86874L25.7342 6.75232C27.0166 6.70577 27.9603 7.94651 27.6061 9.19765L26.7656 12.1648C26.409 13.4234 26.699 14.7669 27.5416 15.7565L29.6406 18.2235C30.4864 19.2172 30.1228 20.764 28.9208 21.2568ZM10.4514 15.6526H14.0009C14.4377 15.6526 14.7919 15.2912 14.7919 14.8459C14.7919 14.4006 14.4377 14.0397 14.0009 14.0397H11.2669C11.3253 13.8035 11.4845 13.5998 11.7049 13.4925C11.7091 13.4908 12.8744 12.9244 13.2882 12.7232L13.4318 12.6534C15.7352 11.502 14.9399 7.92239 12.3627 7.92239C10.8725 7.92239 9.66064 9.15856 9.66064 10.6779C9.66064 11.1228 10.0146 11.4842 10.4514 11.4842C10.8882 11.4842 11.2424 11.1228 11.2424 10.6779C11.2424 10.048 11.7449 9.53569 12.3627 9.53569C13.2653 9.53569 13.5363 10.801 12.7389 11.2035L11.024 12.0368C10.1955 12.4401 9.66039 13.3045 9.66039 14.2401V14.8459C9.66039 15.2917 10.0146 15.6526 10.4514 15.6526ZM19.1833 13.6729H16.6679C16.0641 13.6729 15.6824 13.0081 15.9781 12.4717L18.2552 8.33362C18.4689 7.94568 18.9511 7.80762 19.332 8.02592C19.7131 8.24423 19.8486 8.73487 19.6347 9.12364L18.0185 12.0596H19.1833V11.5927C19.1833 11.1469 19.5376 10.7864 19.9744 10.7864C20.4111 10.7864 20.7652 11.1469 20.7652 11.5927V12.0596H20.8543C21.2911 12.0596 21.6453 12.4209 21.6453 12.8667C21.6453 13.3116 21.2911 13.6729 20.8543 13.6729H20.7652V14.8459C20.7652 15.2917 20.4111 15.6526 19.9744 15.6526C19.5376 15.6526 19.1833 15.2917 19.1833 14.8459V13.6729ZM23.7521 17.0892H8.2497C7.72543 17.0892 7.30063 17.5216 7.30063 18.0563C7.30063 18.5915 7.72543 19.0251 8.2497 19.0251H23.7521C24.2764 19.0251 24.7012 18.5915 24.7012 18.0563C24.7012 17.5216 24.2764 17.0892 23.7521 17.0892ZM14.2006 20.4871H17.1051C17.628 20.4871 18.0077 20.996 17.8668 21.51L16.5182 26.4302C16.4002 26.8601 15.9624 27.1092 15.5435 26.9898C15.1228 26.8693 14.877 26.4243 14.9946 25.9952L16.0628 22.0988H14.2006C13.7638 22.0988 13.4096 21.7383 13.4096 21.2933C13.4096 20.8476 13.7638 20.4871 14.2006 20.4871Z" fill="#56AABF"/>
</svg>
