<svg width="17" height="17" viewBox="0 0 17 17" fill="none" xmlns="http://www.w3.org/2000/svg">
<path d="M15.7712 16.2124H1.01595C0.455178 16.2124 0 15.7573 0 15.1965V4.61338C0 4.05261 0.455178 3.59743 1.01595 3.59743H4.26259V1.01595C4.26259 0.455175 4.71777 0 5.27854 0H11.5086C12.0694 0 12.5246 0.455175 12.5246 1.01595V3.59743H15.7712C16.332 3.59743 16.7872 4.05261 16.7872 4.61338V15.1965C16.7872 15.7573 16.332 16.2124 15.7712 16.2124ZM6.70327 12.3762C6.1425 12.3762 5.68732 11.921 5.68732 11.3603C5.68732 10.7995 6.1425 10.3443 6.70327 10.3443H10.0835C10.6443 10.3443 11.0995 10.7995 11.0995 11.3603C11.0995 11.921 10.6443 12.3762 10.0835 12.3762H6.70327ZM6.29449 3.59743H10.4927V2.0319H6.29449V3.59743ZM2.0319 14.1805H14.7553V5.62933H2.0319V14.1805Z" fill="#DC662D"/>
</svg>
