<svg width="218" height="183" viewBox="0 0 218 183" fill="none" xmlns="http://www.w3.org/2000/svg">
<path fill-rule="evenodd" clip-rule="evenodd" d="M216.932 110.512C222.532 -6.17538 43.2666 -29.492 5.85404 35.9896C-5.35523 55.6068 1.95176 77.4917 7.7889 83.8126C38.5743 117.144 2.9208 118.283 2.91226 146.336C2.90094 181.28 211.71 219.28 216.932 110.512Z" fill="white" fill-opacity="0.01"/>
<path fill-rule="evenodd" clip-rule="evenodd" d="M216.932 110.512C222.532 -6.17538 43.2666 -29.492 5.85404 35.9896C-5.35523 55.6068 1.95176 77.4917 7.7889 83.8126C38.5743 117.144 2.9208 118.283 2.91226 146.336C2.90094 181.28 211.71 219.28 216.932 110.512Z" fill="url(#paint0_linear_189_1691)"/>
<path fill-rule="evenodd" clip-rule="evenodd" d="M17.3124 152.791H200.716C203.088 152.791 205.029 154.731 205.029 157.099V157.101C205.029 159.469 203.086 161.409 200.716 161.409H17.3124C14.9418 161.409 13 159.47 13 157.101V157.099C13 154.73 14.9403 152.791 17.3124 152.791Z" fill="#5984B2"/>
<path fill-rule="evenodd" clip-rule="evenodd" d="M68.7786 155.722H29.5724C27.8447 155.722 26.4321 154.311 26.4321 152.585V30.1012C26.4321 28.3751 27.8447 26.9634 29.5724 26.9634H68.7786C70.5063 26.9634 71.9189 28.3751 71.9189 30.1012V152.585C71.9189 154.311 70.5063 155.722 68.7786 155.722Z" fill="#456F9C"/>
<path fill-rule="evenodd" clip-rule="evenodd" d="M62.7572 105.359H35.5934C34.3959 105.359 33.417 104.382 33.417 103.186V35.9044C33.417 34.708 34.3959 33.7305 35.5934 33.7305H62.7572C63.9551 33.7305 64.9336 34.708 64.9336 35.9044V103.186C64.9336 104.382 63.9551 105.359 62.7572 105.359Z" fill="white"/>
<path fill-rule="evenodd" clip-rule="evenodd" d="M48.8483 135.815C42.5078 135.815 37.3682 130.68 37.3682 124.345C37.3682 118.011 42.5078 112.876 48.8483 112.876C55.1888 112.876 60.3284 118.011 60.3284 124.345C60.3284 130.68 55.1888 135.815 48.8483 135.815Z" fill="#3C648F"/>
<path fill-rule="evenodd" clip-rule="evenodd" d="M48.8484 133.378C43.8551 133.378 39.8071 129.333 39.8071 124.345C39.8071 119.356 43.8551 115.312 48.8484 115.312C53.8417 115.312 57.8896 119.356 57.8896 124.345C57.8896 129.333 53.8417 133.378 48.8484 133.378Z" fill="#5984B2"/>
<path fill-rule="evenodd" clip-rule="evenodd" d="M38.6149 41.0537H59.7352C60.42 41.0537 60.98 41.6122 60.98 42.2973V42.2983C60.98 42.983 60.42 43.5419 59.7352 43.5419H38.6149C37.9301 43.5419 37.3701 42.983 37.3701 42.2983V42.2973C37.3701 41.6122 37.9301 41.0537 38.6149 41.0537ZM38.6149 95.5478H59.7352C60.42 95.5478 60.98 96.1062 60.98 96.7914V96.7924C60.98 97.4771 60.42 98.036 59.7352 98.036H38.6149C37.9301 98.036 37.3701 97.4771 37.3701 96.7924V96.7914C37.3701 96.1062 37.9301 95.5478 38.6149 95.5478ZM38.6149 84.6486H59.7352C60.42 84.6486 60.98 85.2075 60.98 85.8927V85.8932C60.98 86.5783 60.42 87.1373 59.7352 87.1373H38.6149C37.9301 87.1373 37.3701 86.5783 37.3701 85.8932V85.8927C37.3701 85.2075 37.9301 84.6486 38.6149 84.6486ZM38.6149 73.7499H59.7352C60.42 73.7499 60.98 74.3083 60.98 74.9935V74.9945C60.98 75.6791 60.42 76.2381 59.7352 76.2381H38.6149C37.9301 76.2381 37.3701 75.6791 37.3701 74.9945V74.9935C37.3701 74.3083 37.9301 73.7499 38.6149 73.7499ZM38.6149 62.8516H59.7352C60.42 62.8516 60.98 63.4101 60.98 64.0953V64.0962C60.98 64.7809 60.42 65.3398 59.7352 65.3398H38.6149C37.9301 65.3398 37.3701 64.7809 37.3701 64.0962V64.0953C37.3701 63.4101 37.9301 62.8516 38.6149 62.8516ZM38.6149 51.9524H59.7352C60.42 51.9524 60.98 52.5114 60.98 53.1965V53.197C60.98 53.8822 60.42 54.4411 59.7352 54.4411H38.6149C37.9301 54.4411 37.3701 53.8822 37.3701 53.197V53.1965C37.3701 52.5114 37.9301 51.9524 38.6149 51.9524Z" fill="#C6B1E0"/>
<path fill-rule="evenodd" clip-rule="evenodd" d="M114.092 155.722H74.8863C73.1587 155.722 71.7461 154.311 71.7461 152.585V30.1012C71.7461 28.3751 73.1587 26.9634 74.8863 26.9634H114.092C115.82 26.9634 117.232 28.3751 117.232 30.1012V152.585C117.232 154.311 115.82 155.722 114.092 155.722Z" fill="#4999AD"/>
<path fill-rule="evenodd" clip-rule="evenodd" d="M108.071 105.359H80.9069C79.7099 105.359 78.7305 104.382 78.7305 103.186V35.9044C78.7305 34.708 79.7099 33.7305 80.9069 33.7305H108.071C109.269 33.7305 110.247 34.708 110.247 35.9044V103.186C110.247 104.382 109.269 105.359 108.071 105.359Z" fill="white"/>
<path fill-rule="evenodd" clip-rule="evenodd" d="M94.1622 135.815C87.8222 135.815 82.6821 130.68 82.6821 124.345C82.6821 118.011 87.8222 112.876 94.1622 112.876C100.503 112.876 105.643 118.011 105.643 124.345C105.643 130.68 100.503 135.815 94.1622 135.815Z" fill="#3E899C"/>
<path fill-rule="evenodd" clip-rule="evenodd" d="M94.1624 133.378C89.1691 133.378 85.1211 129.333 85.1211 124.345C85.1211 119.356 89.1691 115.312 94.1624 115.312C99.1561 115.312 103.204 119.356 103.204 124.345C103.204 129.333 99.1561 133.378 94.1624 133.378Z" fill="#56AABF"/>
<path fill-rule="evenodd" clip-rule="evenodd" d="M83.9294 41.0537H105.049C105.735 41.0537 106.294 41.6122 106.294 42.2973V42.2983C106.294 42.983 105.735 43.5419 105.049 43.5419H83.9294C83.2441 43.5419 82.6841 42.983 82.6841 42.2983V42.2973C82.6841 41.6122 83.2441 41.0537 83.9294 41.0537ZM83.9294 95.5478H105.049C105.735 95.5478 106.294 96.1062 106.294 96.7914V96.7924C106.294 97.4771 105.735 98.036 105.049 98.036H83.9294C83.2441 98.036 82.6841 97.4771 82.6841 96.7924V96.7914C82.6841 96.1062 83.2441 95.5478 83.9294 95.5478ZM83.9294 84.6486H105.049C105.735 84.6486 106.294 85.2075 106.294 85.8927V85.8932C106.294 86.5783 105.735 87.1373 105.049 87.1373H83.9294C83.2441 87.1373 82.6841 86.5783 82.6841 85.8932V85.8927C82.6841 85.2075 83.2441 84.6486 83.9294 84.6486ZM83.9294 73.7499H105.049C105.735 73.7499 106.294 74.3083 106.294 74.9935V74.9945C106.294 75.6791 105.735 76.2381 105.049 76.2381H83.9294C83.2441 76.2381 82.6841 75.6791 82.6841 74.9945V74.9935C82.6841 74.3083 83.2441 73.7499 83.9294 73.7499ZM83.9294 62.8516H105.049C105.735 62.8516 106.294 63.4101 106.294 64.0953V64.0962C106.294 64.7809 105.735 65.3398 105.049 65.3398H83.9294C83.2441 65.3398 82.6841 64.7809 82.6841 64.0962V64.0953C82.6841 63.4101 83.2441 62.8516 83.9294 62.8516ZM83.9294 51.9524H105.049C105.735 51.9524 106.294 52.5114 106.294 53.1965V53.197C106.294 53.8822 105.735 54.4411 105.049 54.4411H83.9294C83.2441 54.4411 82.6841 53.8822 82.6841 53.197V53.1965C82.6841 52.5114 83.2441 51.9524 83.9294 51.9524Z" fill="#C6B1E0"/>
<path fill-rule="evenodd" clip-rule="evenodd" d="M189.268 145.478L151.398 155.616C149.729 156.063 147.999 155.065 147.552 153.397L115.821 35.087C115.374 33.4199 116.373 31.6914 118.042 31.2446L155.912 21.1065C157.58 20.6602 159.311 21.6577 159.758 23.3253L191.489 141.636C191.936 143.303 190.937 145.031 189.268 145.478Z" fill="#8B6CB0"/>
<path fill-rule="evenodd" clip-rule="evenodd" d="M170.405 98.3874L144.167 105.411C143.01 105.721 141.811 105.03 141.501 103.874L124.071 38.8857C123.762 37.7303 124.454 36.5329 125.61 36.2235L151.849 29.1994C153.006 28.8899 154.204 29.581 154.514 30.7364L171.944 95.7252C172.254 96.8806 171.562 98.0774 170.405 98.3874Z" fill="white"/>
<path fill-rule="evenodd" clip-rule="evenodd" d="M164.86 131.403C158.736 133.043 152.441 129.412 150.8 123.293C149.159 117.174 152.793 110.885 158.918 109.246C165.042 107.606 171.337 111.237 172.978 117.356C174.619 123.475 170.985 129.763 164.86 131.403Z" fill="#715199"/>
<path fill-rule="evenodd" clip-rule="evenodd" d="M164.229 129.049C159.406 130.34 154.448 127.48 153.155 122.662C151.863 117.843 154.726 112.89 159.549 111.599C164.372 110.307 169.329 113.167 170.622 117.986C171.915 122.804 169.052 127.757 164.229 129.049Z" fill="#C6B1E0"/>
<path fill-rule="evenodd" clip-rule="evenodd" d="M130.426 42.5148L150.827 37.0535C151.488 36.8766 152.174 37.2713 152.351 37.9331V37.9336C152.529 38.5953 152.133 39.28 151.471 39.4569L131.071 44.9182C130.409 45.0956 129.723 44.7004 129.546 44.0386V44.0381C129.368 43.3764 129.764 42.6917 130.426 42.5148ZM144.543 95.1517L164.944 89.6909C165.606 89.5135 166.291 89.9087 166.469 90.5705V90.571C166.646 91.2328 166.25 91.9174 165.589 92.0943L145.188 97.5556C144.526 97.7325 143.841 97.3378 143.663 96.676L143.663 96.6755C143.486 96.0138 143.882 95.3291 144.543 95.1517ZM141.72 84.6243L162.12 79.163C162.782 78.9861 163.468 79.3809 163.645 80.0426V80.0436C163.823 80.7049 163.427 81.3896 162.765 81.5669L142.364 87.0277C141.703 87.2051 141.017 86.8099 140.84 86.1486V86.1477C140.662 85.4859 141.058 84.8017 141.72 84.6243ZM138.896 74.097L159.297 68.6357C159.959 68.4583 160.645 68.8535 160.822 69.5153L160.822 69.5157C161 70.1775 160.604 70.8622 159.942 71.0391L139.541 76.5004C138.879 76.6777 138.194 76.2825 138.016 75.6208L138.016 75.6203C137.838 74.9585 138.235 74.2738 138.896 74.097ZM136.073 63.5701L156.474 58.1088C157.135 57.9314 157.821 58.3266 157.998 58.9884L157.999 58.9888C158.176 59.6506 157.78 60.3353 157.118 60.5122L136.718 65.9735C136.056 66.1504 135.37 65.7556 135.193 65.0939V65.0934C135.015 64.4316 135.411 63.7469 136.073 63.5701ZM133.249 53.0422L153.65 47.5814C154.312 47.404 154.998 47.7987 155.175 48.4605V48.4615C155.353 49.1232 154.957 49.8074 154.295 49.9848L133.894 55.4461C133.232 55.623 132.547 55.2283 132.37 54.5665L132.369 54.5655C132.192 53.9042 132.588 53.2196 133.249 53.0422Z" fill="#C6B1E0"/>
<defs>
<linearGradient id="paint0_linear_189_1691" x1="224.008" y1="220.328" x2="224.008" y2="-30.6719" gradientUnits="userSpaceOnUse">
<stop stop-color="#123853"/>
<stop offset="1" stop-color="#123853" stop-opacity="0"/>
</linearGradient>
</defs>
</svg>
