<svg width="14" height="19" viewBox="0 0 14 19" fill="none" xmlns="http://www.w3.org/2000/svg">
<path d="M13.5017 1.01595V17.4344C13.5017 17.9951 13.0466 18.4503 12.4858 18.4503H1.01595C0.455179 18.4503 0 17.9951 0 17.4344V1.01595C0 0.455179 0.455179 0 1.01595 0H12.4858C13.0466 0 13.5017 0.455179 13.5017 1.01595ZM4.28339 5.68493C3.72262 5.68493 3.26744 5.22976 3.26744 4.66898C3.26744 4.10821 3.72262 3.65303 4.28339 3.65303H5.11295C5.67372 3.65303 6.1289 4.10821 6.1289 4.66898C6.1289 5.22976 5.67372 5.68493 5.11295 5.68493H4.28339ZM8.38879 5.68493C7.82801 5.68493 7.37283 5.22976 7.37283 4.66898C7.37283 4.10821 7.82801 3.65303 8.38879 3.65303H9.21834C9.77912 3.65303 10.2343 4.10821 10.2343 4.66898C10.2343 5.22976 9.77912 5.68493 9.21834 5.68493H8.38879ZM8.38879 14.7973C7.82801 14.7973 7.37283 14.3421 7.37283 13.7813C7.37283 13.2206 7.82801 12.7654 8.38879 12.7654H9.21834C9.77912 12.7654 10.2343 13.2206 10.2343 13.7813C10.2343 14.3421 9.77912 14.7973 9.21834 14.7973H8.38879ZM8.38879 11.7598C7.82801 11.7598 7.37283 11.3047 7.37283 10.7439C7.37283 10.1831 7.82801 9.72794 8.38879 9.72794H9.21834C9.77912 9.72794 10.2343 10.1831 10.2343 10.7439C10.2343 11.3047 9.77912 11.7598 9.21834 11.7598H8.38879ZM8.38879 8.72239C7.82801 8.72239 7.37283 8.26721 7.37283 7.70644C7.37283 7.14566 7.82801 6.69048 8.38879 6.69048H9.21834C9.77912 6.69048 10.2343 7.14566 10.2343 7.70644C10.2343 8.26721 9.77912 8.72239 9.21834 8.72239H8.38879ZM4.28339 14.7973C3.72262 14.7973 3.26744 14.3421 3.26744 13.7813C3.26744 13.2206 3.72262 12.7654 4.28339 12.7654H5.11295C5.67372 12.7654 6.1289 13.2206 6.1289 13.7813C6.1289 14.3421 5.67372 14.7973 5.11295 14.7973H4.28339ZM4.28339 11.7598C3.72262 11.7598 3.26744 11.3047 3.26744 10.7439C3.26744 10.1831 3.72262 9.72794 4.28339 9.72794H5.11295C5.67372 9.72794 6.1289 10.1831 6.1289 10.7439C6.1289 11.3047 5.67372 11.7598 5.11295 11.7598H4.28339ZM4.28339 8.72239C3.72262 8.72239 3.26744 8.26721 3.26744 7.70644C3.26744 7.14566 3.72262 6.69048 4.28339 6.69048H5.11295C5.67372 6.69048 6.1289 7.14566 6.1289 7.70644C6.1289 8.26721 5.67372 8.72239 5.11295 8.72239H4.28339ZM11.4698 16.4184V2.03191H2.0319V16.4184H11.4698Z" fill="#DC662D"/>
</svg>
