<svg width="16" height="16" viewBox="0 0 16 16" fill="none" xmlns="http://www.w3.org/2000/svg">
<path fill-rule="evenodd" clip-rule="evenodd" d="M12 5.99659C12 6.87647 11.8057 7.71145 11.4658 8.46252L16 12.9975V15.9982H13V13.9971H11.0001V11.9974H9.00009L8.46577 11.4627C7.71286 11.8042 6.87984 11.9974 6.00003 11.9974C2.68651 11.9974 0 9.31279 0 5.99659C0 2.68328 2.68651 0 6.00003 0C9.31355 0 12 2.68328 12 5.99659ZM1.99996 5.99659C1.99996 8.20739 3.79098 9.99769 6.00003 9.99769C8.20897 9.99769 10.0001 8.20739 10.0001 5.99659C10.0001 3.78866 8.20897 1.99904 6.00003 1.99904C3.79098 1.99904 1.99996 3.78866 1.99996 5.99659ZM4.00005 5.99659C4.00005 4.89175 4.89451 3.99618 6.00003 3.99618C7.10553 3.99618 7.99999 4.89175 7.99999 5.99659C7.99999 7.10363 7.10553 7.99632 6.00003 7.99632C4.89451 7.99632 4.00005 7.10363 4.00005 5.99659Z" fill="white"/>
</svg>
