<svg width="218" height="183" viewBox="0 0 218 183" fill="none" xmlns="http://www.w3.org/2000/svg">
<path fill-rule="evenodd" clip-rule="evenodd" d="M216.932 110.831C222.532 -5.85666 43.2666 -29.1731 5.85404 36.3083C-5.35523 55.9257 1.95176 77.8112 7.7889 84.1316C38.5743 117.463 2.9208 118.602 2.91226 146.655C2.90094 181.599 211.71 219.599 216.932 110.831Z" fill="white" fill-opacity="0.01"/>
<path fill-rule="evenodd" clip-rule="evenodd" d="M216.932 110.831C222.532 -5.85666 43.2666 -29.1731 5.85404 36.3083C-5.35523 55.9257 1.95176 77.8112 7.7889 84.1316C38.5743 117.463 2.9208 118.602 2.91226 146.655C2.90094 181.599 211.71 219.599 216.932 110.831Z" fill="url(#paint0_linear_189_1692)"/>
<path fill-rule="evenodd" clip-rule="evenodd" d="M32.0809 129.544L11.0171 51.0063L153.992 12.7319L174.956 90.5424C127.311 103.297 80.1923 116.664 32.0809 129.544Z" fill="#5984B2"/>
<path fill-rule="evenodd" clip-rule="evenodd" d="M33.6494 122.351L16.0068 56.5705L151.39 20.3286L168.585 85.2332C123.532 97.2942 79.4742 110.084 33.6494 122.351Z" fill="white"/>
<path fill-rule="evenodd" clip-rule="evenodd" d="M136.186 103.676L30.8704 131.869L29.033 132.361L28.5408 130.525L7.49216 52.0444L7 50.2082L8.83694 49.716L154.169 10.811L156.008 10.3188L156.5 12.1555L173.946 77.2053L170.271 78.1891L153.317 14.9751L11.6601 52.8962L31.724 127.705L135.201 100.004L136.186 103.676Z" fill="#456F9C"/>
<path fill-rule="evenodd" clip-rule="evenodd" d="M33.9268 107.563L33.957 107.555L46.9721 115.112L46.5326 115.23L36.6895 117.865L33.9409 107.616L33.9268 107.563Z" fill="#B3B3B3"/>
<path fill-rule="evenodd" clip-rule="evenodd" d="M23.648 69.2402L23.6782 69.2323L31.1679 56.1851L30.7284 56.303L20.8853 58.9379L23.6338 69.1865L23.648 69.2402Z" fill="#56AABF"/>
<path fill-rule="evenodd" clip-rule="evenodd" d="M151.114 35.1172L151.084 35.125L138.068 27.5673L138.507 27.4498L148.351 24.8149L151.1 35.0636L151.114 35.1172Z" fill="#56AABF"/>
<path fill-rule="evenodd" clip-rule="evenodd" d="M99.7558 98.319C84.8423 102.311 69.5133 93.4687 65.517 78.5697C61.5212 63.6701 70.3717 48.3559 85.2852 44.3638C100.198 40.3718 115.527 49.2131 119.523 64.1121C123.519 79.0117 114.668 94.3269 99.7558 98.319Z" fill="#5984B2"/>
<path fill-rule="evenodd" clip-rule="evenodd" d="M97.6002 68.142L94.2834 72.6959L106.719 69.3671L107.733 73.1491L91.607 77.4662C90.7461 78.5646 90.3739 79.7263 90.711 80.9841C91.2909 83.1463 93.3215 83.8587 96.3828 83.0391C98.9957 82.3398 100.909 80.4792 102.011 77.3863L107.864 79.393C106.276 84.2598 101.958 87.6315 97.3622 88.862C91.3261 90.4779 86.0528 88.8055 84.7724 84.0327C84.3612 82.4992 84.47 80.7341 85.2109 79.1874L80.2523 80.5148L79.2377 76.7328L87.163 74.6116L90.5744 70.0323L78.3207 73.3124L77.3062 69.5303L93.3459 65.2367C94.2297 63.8459 94.5073 62.7095 94.1932 61.538C93.6869 59.6511 91.608 58.7578 88.9955 59.4576C86.4684 60.134 84.6988 62.1495 83.8154 64.9901L78.1666 63.0208C79.6684 58.1775 83.3476 54.9763 87.9439 53.7459C94.1614 52.0817 99.0835 54.2361 100.266 58.6472C100.701 60.2666 100.592 62.0316 100.009 63.4439L104.787 62.1647L105.801 65.9467L97.6002 68.142Z" fill="white"/>
<path fill-rule="evenodd" clip-rule="evenodd" d="M159.406 153.322H49.7002V72.0137H197.719V99.9128H159.406V153.322Z" fill="#5984B2"/>
<path fill-rule="evenodd" clip-rule="evenodd" d="M156.959 146.781H53.0781V78.6802H193.237V102.048H156.959V146.781Z" fill="white"/>
<path fill-rule="evenodd" clip-rule="evenodd" d="M156.959 155.256H47.9282H46.0264V153.355V72.1061V70.2051H47.9282H198.387H200.29V72.1061V102.047H196.485V74.0066H49.8314V151.454H156.959V155.256Z" fill="#456F9C"/>
<path fill-rule="evenodd" clip-rule="evenodd" d="M57.1768 132.568H57.208L67.8223 143.233H67.3672H57.1768V132.622V132.568Z" fill="#B3B3B3"/>
<path fill-rule="evenodd" clip-rule="evenodd" d="M57.1768 92.8943H57.208L67.8223 82.2285H67.3672H57.1768V92.8387V92.8943Z" fill="#56AABF"/>
<path fill-rule="evenodd" clip-rule="evenodd" d="M189.139 92.8943H189.108L178.493 82.2285H178.948H189.139V92.8387V92.8943Z" fill="#56AABF"/>
<path fill-rule="evenodd" clip-rule="evenodd" d="M123.158 140.659C107.719 140.659 95.2026 128.154 95.2026 112.729C95.2026 97.3042 107.719 84.8003 123.158 84.8003C138.597 84.8003 151.113 97.3042 151.113 112.729C151.113 128.154 138.597 140.659 123.158 140.659Z" fill="#5984B2"/>
<path fill-rule="evenodd" clip-rule="evenodd" d="M128.893 110.956L124.509 114.497H137.383V118.412H120.688C119.572 119.251 118.912 120.276 118.912 121.579C118.912 123.818 120.688 125.031 123.857 125.031C126.562 125.031 128.893 123.728 130.759 121.026L135.892 124.477C133.098 128.768 128.054 130.909 123.295 130.909C117.046 130.909 112.386 127.929 112.386 122.988C112.386 121.401 112.948 119.724 114.064 118.421H108.931V114.506H117.135L121.617 110.965H108.931V107.049H125.536C126.75 105.934 127.313 104.909 127.313 103.696C127.313 101.742 125.536 100.342 122.831 100.342C120.215 100.342 117.983 101.832 116.394 104.347L111.448 100.984C114.153 96.694 118.537 94.5532 123.295 94.5532C129.732 94.5532 133.928 97.9069 133.928 102.474C133.928 104.151 133.365 105.827 132.437 107.041H137.383V110.956H128.893Z" fill="white"/>
<path fill-rule="evenodd" clip-rule="evenodd" d="M157.174 142.852H208.023C208.834 142.852 209.496 143.732 209.496 144.806V153.304C209.496 154.377 208.834 155.257 208.023 155.257H157.174C156.364 155.257 155.701 154.377 155.701 153.304V144.806C155.701 143.732 156.364 142.852 157.174 142.852Z" fill="#4999AD"/>
<path fill-rule="evenodd" clip-rule="evenodd" d="M157.174 130.736H208.023C208.834 130.736 209.496 131.616 209.496 132.689V141.188C209.496 142.261 208.834 143.14 208.023 143.14H157.174C156.364 143.14 155.701 142.261 155.701 141.188V132.689C155.701 131.616 156.364 130.736 157.174 130.736Z" fill="#56AABF"/>
<path fill-rule="evenodd" clip-rule="evenodd" d="M157.174 118.62H208.023C208.834 118.62 209.496 119.5 209.496 120.574V129.072C209.496 130.146 208.834 131.025 208.023 131.025H157.174C156.364 131.025 155.701 130.146 155.701 129.072V120.574C155.701 119.5 156.364 118.62 157.174 118.62Z" fill="#4999AD"/>
<path fill-rule="evenodd" clip-rule="evenodd" d="M157.174 106.505H208.023C208.834 106.505 209.496 107.386 209.496 108.459V116.958C209.496 118.031 208.834 118.91 208.023 118.91H157.174C156.364 118.91 155.701 118.031 155.701 116.958V108.459C155.701 107.386 156.364 106.505 157.174 106.505Z" fill="#56AABF"/>
<path fill-rule="evenodd" clip-rule="evenodd" d="M157.174 94.3901H208.023C208.834 94.3901 209.496 95.2707 209.496 96.3443V104.842C209.496 105.916 208.834 106.795 208.023 106.795H157.174C156.364 106.795 155.701 105.916 155.701 104.842V96.3443C155.701 95.2707 156.364 94.3901 157.174 94.3901Z" fill="#4999AD"/>
<path fill-rule="evenodd" clip-rule="evenodd" d="M51.3669 172.531C31.483 172.531 15.3643 156.427 15.3643 136.561C15.3643 116.696 31.483 100.593 51.3669 100.593C71.2507 100.593 87.3695 116.696 87.3695 136.561C87.3695 156.427 71.2507 172.531 51.3669 172.531Z" fill="#456F9C"/>
<path fill-rule="evenodd" clip-rule="evenodd" d="M51.3669 169.711C33.0415 169.711 18.1855 154.869 18.1855 136.56C18.1855 118.253 33.0415 103.411 51.3669 103.411C69.6924 103.411 84.5483 118.253 84.5483 136.56C84.5483 154.869 69.6924 169.711 51.3669 169.711Z" fill="white"/>
<path fill-rule="evenodd" clip-rule="evenodd" d="M44.4128 129.079L39.8653 129.079C34.4238 129.079 35.1145 135.036 37.3523 135.33C37.9825 135.426 38.0733 135.66 37.3197 135.74C32.7747 136.745 34.0955 143.351 37.6938 143.105C38.2869 143.066 38.3713 143.143 37.7538 143.349C35.0579 144.195 35.4047 149.771 40.0014 149.716C41.7935 149.695 41.1857 149.787 40.3346 150.192C38.5625 151.16 38.9459 155.861 42.552 155.861H56.9162C62.6797 154.699 64.4093 151.949 66.6755 150.99C68.7534 150.109 68.8621 134.437 66.9579 134.293C65.7438 134.202 63.5518 133.138 62.7577 132.084C60.5345 129.138 58.5873 128.884 55.8612 126.041C53.0287 123.086 50.1148 121.767 48.4403 117.75C46.3361 111.17 40.7516 115.764 42.4812 121.294C43.5572 123.961 44.3694 125.35 45.9902 127.284C46.7624 128.203 46.3541 129.079 44.4128 129.079Z" fill="#7F62A3"/>
<defs>
<linearGradient id="paint0_linear_189_1692" x1="224.008" y1="220.647" x2="224.008" y2="-30.353" gradientUnits="userSpaceOnUse">
<stop stop-color="#123853"/>
<stop offset="1" stop-color="#123853" stop-opacity="0"/>
</linearGradient>
</defs>
</svg>
