<svg width="16" height="16" viewBox="0 0 16 16" fill="none" xmlns="http://www.w3.org/2000/svg">
<path fill-rule="evenodd" clip-rule="evenodd" d="M4.00005 0H15C15.5527 0 16 0.44764 16 1.00075V8.00096C16 8.55367 15.5527 9.00062 15 9.00062H14V3.00048C14 2.44737 13.5527 2.00163 13 2.00163H3.00006V1.00075C3.00006 0.44764 3.4473 0 4.00005 0ZM0.99997 3.00048H12C12.5527 3.00048 13 3.44772 13 4.00083V11.0017C13 11.5521 12.5527 12.0007 12 12.0007H8.41415L4.70695 15.7065C4.5156 15.8988 4.25982 16.0003 4.00005 16.0003C3.87108 16.0003 3.74118 15.9761 3.61724 15.9229C3.24313 15.7696 3.00006 15.4045 3.00006 15.0019V12.0007H0.99997C0.447336 12.0007 0 11.5521 0 11.0017V4.00083C0 3.44772 0.447336 3.00048 0.99997 3.00048ZM7.99999 10.0007H11V5.00116H1.99996V10.0007H4.00005C4.55269 10.0007 5.00002 10.4486 5.00002 11.0017V12.5868L7.29296 10.2931C7.48832 10.0966 7.7441 10.0007 7.99999 10.0007Z" fill="white"/>
</svg>
