<svg width="307" height="46" viewBox="0 0 307 46" fill="none" xmlns="http://www.w3.org/2000/svg">
<path fill-rule="evenodd" clip-rule="evenodd" d="M70 11.2461L122 11.2461L122 6.24609L70 6.2461L70 11.2461Z" fill="url(#paint0_linear_123_174)"/>
<path fill-rule="evenodd" clip-rule="evenodd" d="M9 18.2461L122 18.2461L122 13.2461L9 13.2461L9 18.2461Z" fill="url(#paint1_linear_123_174)"/>
<path fill-rule="evenodd" clip-rule="evenodd" d="M36 25.2461L122 25.2461L122 20.2461L36 20.2461L36 25.2461Z" fill="url(#paint2_linear_123_174)"/>
<path fill-rule="evenodd" clip-rule="evenodd" d="M57 32.2461L122 32.2461L122 27.2461L57 27.2461L57 32.2461Z" fill="url(#paint3_linear_123_174)"/>
<path fill-rule="evenodd" clip-rule="evenodd" d="M89 39.2461L122 39.2461L122 34.2461L89 34.2461L89 39.2461Z" fill="url(#paint4_linear_123_174)"/>
<path fill-rule="evenodd" clip-rule="evenodd" d="M122 12.2461L193 12.2461L193 5.24609L122 5.2461L122 12.2461Z" fill="#DC662D"/>
<path fill-rule="evenodd" clip-rule="evenodd" d="M122 19.2461L193 19.2461L193 12.2461L122 12.2461L122 19.2461Z" fill="#5856BF"/>
<path fill-rule="evenodd" clip-rule="evenodd" d="M122 26.2461L193 26.2461L193 19.2461L122 19.2461L122 26.2461Z" fill="#56AABF"/>
<path fill-rule="evenodd" clip-rule="evenodd" d="M122 33.2461L193 33.2461L193 26.2461L122 26.2461L122 33.2461Z" fill="#DCC02D"/>
<path fill-rule="evenodd" clip-rule="evenodd" d="M122 40.2461L193 40.2461L193 33.2461L122 33.2461L122 40.2461Z" fill="#56BF7A"/>
<path fill-rule="evenodd" clip-rule="evenodd" d="M166 43.2461L210 43.2461L210 2.2461L166 2.2461L166 43.2461Z" fill="#8B6CB0"/>
<path fill-rule="evenodd" clip-rule="evenodd" d="M207 45.2461L307 45.2461L307 0.246093L207 0.246098L207 45.2461Z" fill="#123853"/>
<circle cx="67" cy="8.24609" r="8" fill="url(#paint5_radial_123_174)"/>
<circle cx="67" cy="8.24609" r="4" fill="white" fill-opacity="0.5"/>
<circle cx="8" cy="15.2461" r="8" fill="url(#paint6_radial_123_174)"/>
<circle cx="8" cy="15.2461" r="4" fill="white" fill-opacity="0.5"/>
<circle cx="34" cy="22.2461" r="8" fill="url(#paint7_radial_123_174)"/>
<circle cx="34" cy="22.2461" r="4" fill="white" fill-opacity="0.5"/>
<circle cx="54" cy="29.2461" r="8" fill="url(#paint8_radial_123_174)"/>
<circle cx="54" cy="29.2461" r="4" fill="white" fill-opacity="0.5"/>
<circle cx="86" cy="36.2461" r="8" fill="url(#paint9_radial_123_174)"/>
<circle cx="86" cy="36.2461" r="4" fill="white" fill-opacity="0.5"/>
<defs>
<linearGradient id="paint0_linear_123_174" x1="70" y1="8.74609" x2="122" y2="8.74609" gradientUnits="userSpaceOnUse">
<stop stop-color="white" stop-opacity="0"/>
<stop offset="1" stop-color="white" stop-opacity="0.3"/>
</linearGradient>
<linearGradient id="paint1_linear_123_174" x1="9" y1="15.7461" x2="122" y2="15.7461" gradientUnits="userSpaceOnUse">
<stop stop-color="white" stop-opacity="0"/>
<stop offset="1" stop-color="white" stop-opacity="0.3"/>
</linearGradient>
<linearGradient id="paint2_linear_123_174" x1="36" y1="22.7461" x2="122" y2="22.7461" gradientUnits="userSpaceOnUse">
<stop stop-color="white" stop-opacity="0"/>
<stop offset="1" stop-color="white" stop-opacity="0.3"/>
</linearGradient>
<linearGradient id="paint3_linear_123_174" x1="57" y1="29.7461" x2="122" y2="29.7461" gradientUnits="userSpaceOnUse">
<stop stop-color="white" stop-opacity="0"/>
<stop offset="1" stop-color="white" stop-opacity="0.3"/>
</linearGradient>
<linearGradient id="paint4_linear_123_174" x1="89" y1="36.7461" x2="122" y2="36.7461" gradientUnits="userSpaceOnUse">
<stop stop-color="white" stop-opacity="0"/>
<stop offset="1" stop-color="white" stop-opacity="0.3"/>
</linearGradient>
<radialGradient id="paint5_radial_123_174" cx="0" cy="0" r="1" gradientUnits="userSpaceOnUse" gradientTransform="translate(67 8.24609) rotate(90) scale(8)">
<stop stop-color="white"/>
<stop offset="1" stop-color="white" stop-opacity="0"/>
</radialGradient>
<radialGradient id="paint6_radial_123_174" cx="0" cy="0" r="1" gradientUnits="userSpaceOnUse" gradientTransform="translate(8 15.2461) rotate(90) scale(8)">
<stop stop-color="white"/>
<stop offset="1" stop-color="white" stop-opacity="0"/>
</radialGradient>
<radialGradient id="paint7_radial_123_174" cx="0" cy="0" r="1" gradientUnits="userSpaceOnUse" gradientTransform="translate(34 22.2461) rotate(90) scale(8)">
<stop stop-color="white"/>
<stop offset="1" stop-color="white" stop-opacity="0"/>
</radialGradient>
<radialGradient id="paint8_radial_123_174" cx="0" cy="0" r="1" gradientUnits="userSpaceOnUse" gradientTransform="translate(54 29.2461) rotate(90) scale(8)">
<stop stop-color="white"/>
<stop offset="1" stop-color="white" stop-opacity="0"/>
</radialGradient>
<radialGradient id="paint9_radial_123_174" cx="0" cy="0" r="1" gradientUnits="userSpaceOnUse" gradientTransform="translate(86 36.2461) rotate(90) scale(8)">
<stop stop-color="white"/>
<stop offset="1" stop-color="white" stop-opacity="0"/>
</radialGradient>
</defs>
</svg>
