<svg width="23" height="16" viewBox="0 0 23 16" fill="none" xmlns="http://www.w3.org/2000/svg">
<path d="M18.1379 6.89728V14.9301C18.1379 15.4909 17.6827 15.9461 17.1219 15.9461H5.04931C4.48854 15.9461 4.03336 15.4909 4.03336 14.9301V6.89728L1.57309 8.526C1.10671 8.83479 0.477135 8.70679 0.16835 8.24041C-0.140435 7.77404 -0.0124354 7.14447 0.453942 6.83568L10.5262 0.168394C10.8786 -0.0651945 11.3246 -0.0487943 11.6546 0.174395L21.7177 6.83568C22.1841 7.14447 22.3121 7.77404 22.0033 8.24041C21.6945 8.70679 21.0649 8.83479 20.5985 8.526L18.1379 6.89728ZM12.213 13.9141V11.6895H9.95867V13.9141H12.213ZM7.92677 13.9141V10.6735C7.92677 10.1127 8.38195 9.65755 8.94272 9.65755H13.2289C13.7897 9.65755 14.2449 10.1127 14.2449 10.6735V13.9141H16.106V5.55214L11.0858 2.2291L6.06527 5.55254V13.9141H7.92677ZM10.671 7.81283C10.1103 7.81283 9.65509 7.35765 9.65509 6.79688C9.65509 6.23611 10.1103 5.78093 10.671 5.78093H11.5006C12.0614 5.78093 12.5165 6.23611 12.5165 6.79688C12.5165 7.35765 12.0614 7.81283 11.5006 7.81283H10.671Z" fill="#DC662D"/>
</svg>
