<svg width="237" height="184" viewBox="0 0 237 184" fill="none" xmlns="http://www.w3.org/2000/svg">
<g id="Group 144">
<g id="Shape 781">
<path fill-rule="evenodd" clip-rule="evenodd" d="M226.932 111.439C232.532 -5.24875 53.2666 -28.5652 15.854 36.9162C4.64477 56.5336 11.9518 78.4191 17.7889 84.7395C48.5743 118.071 12.9208 119.21 12.9123 147.263C12.9009 182.207 221.71 220.207 226.932 111.439Z" fill="white" fill-opacity="0.01"/>
<path fill-rule="evenodd" clip-rule="evenodd" d="M226.932 111.439C232.532 -5.24875 53.2666 -28.5652 15.854 36.9162C4.64477 56.5336 11.9518 78.4191 17.7889 84.7395C48.5743 118.071 12.9208 119.21 12.9123 147.263C12.9009 182.207 221.71 220.207 226.932 111.439Z" fill="url(#paint0_linear_189_1694)"/>
</g>
<g id="_1483856919536">
<path id="Vector" fill-rule="evenodd" clip-rule="evenodd" d="M221.691 147.411H164.228C159.392 147.411 155.435 143.458 155.435 138.626V92.5929C155.435 87.7612 159.391 83.8086 164.228 83.8086H221.691C226.528 83.8086 230.483 87.7626 230.483 92.5929V138.626C230.483 143.457 226.525 147.411 221.691 147.411Z" fill="#335C87"/>
<path id="Vector_2" fill-rule="evenodd" clip-rule="evenodd" d="M157.682 100.879H226.323C239.665 100.879 239.665 80.7271 226.323 80.7271H157.682C144.34 80.7271 144.34 100.879 157.682 100.879Z" fill="#456F9C"/>
<path id="Vector_3" fill-rule="evenodd" clip-rule="evenodd" d="M201.392 89.1706C200.125 89.1706 199.099 88.1438 199.099 86.8782C199.099 85.6132 200.125 84.5874 201.392 84.5874C202.658 84.5874 203.685 85.6132 203.685 86.8782C203.685 88.1438 202.658 89.1706 201.392 89.1706ZM223.932 89.1706C222.666 89.1706 221.639 88.1438 221.639 86.8782C221.639 85.6132 222.666 84.5874 223.932 84.5874C225.199 84.5874 226.225 85.6132 226.225 86.8782C226.225 88.1438 225.199 89.1706 223.932 89.1706ZM223.932 97.0197C222.666 97.0197 221.639 95.993 221.639 94.7274C221.639 93.4628 222.666 92.4366 223.932 92.4366C225.199 92.4366 226.225 93.4628 226.225 94.7274C226.225 95.993 225.199 97.0197 223.932 97.0197ZM216.419 89.1706C215.153 89.1706 214.126 88.1438 214.126 86.8782C214.126 85.6132 215.153 84.5874 216.419 84.5874C217.685 84.5874 218.711 85.6132 218.711 86.8782C218.711 88.1438 217.685 89.1706 216.419 89.1706ZM216.419 97.0197C215.153 97.0197 214.126 95.993 214.126 94.7274C214.126 93.4628 215.153 92.4366 216.419 92.4366C217.685 92.4366 218.711 93.4628 218.711 94.7274C218.711 95.993 217.685 97.0197 216.419 97.0197ZM208.906 89.1706C207.639 89.1706 206.613 88.1438 206.613 86.8782C206.613 85.6132 207.639 84.5874 208.906 84.5874C210.171 84.5874 211.198 85.6132 211.198 86.8782C211.198 88.1438 210.171 89.1706 208.906 89.1706ZM208.906 97.0197C207.639 97.0197 206.613 95.993 206.613 94.7274C206.613 93.4628 207.639 92.4366 208.906 92.4366C210.171 92.4366 211.198 93.4628 211.198 94.7274C211.198 95.993 210.171 97.0197 208.906 97.0197ZM201.392 97.0197C200.125 97.0197 199.099 95.993 199.099 94.7274C199.099 93.4628 200.125 92.4366 201.392 92.4366C202.658 92.4366 203.685 93.4628 203.685 94.7274C203.685 95.993 202.658 97.0197 201.392 97.0197Z" fill="#C6B1E0"/>
<path id="Vector_4" fill-rule="evenodd" clip-rule="evenodd" d="M156.959 95.7844C154.205 95.7844 151.973 93.5539 151.973 90.8031C151.973 88.0522 154.205 85.8218 156.959 85.8218C159.713 85.8218 161.945 88.0522 161.945 90.8031C161.945 93.5539 159.713 95.7844 156.959 95.7844Z" fill="#C6B1E0"/>
<path id="Vector_5" fill-rule="evenodd" clip-rule="evenodd" d="M157.682 126.54H226.323C239.665 126.54 239.665 106.388 226.323 106.388H157.682C144.34 106.388 144.34 126.54 157.682 126.54Z" fill="#456F9C"/>
<path id="Vector_6" fill-rule="evenodd" clip-rule="evenodd" d="M201.392 114.832C200.125 114.832 199.099 113.805 199.099 112.54C199.099 111.275 200.125 110.249 201.392 110.249C202.658 110.249 203.685 111.275 203.685 112.54C203.685 113.805 202.658 114.832 201.392 114.832ZM223.932 114.832C222.666 114.832 221.639 113.805 221.639 112.54C221.639 111.275 222.666 110.249 223.932 110.249C225.199 110.249 226.225 111.275 226.225 112.54C226.225 113.805 225.199 114.832 223.932 114.832ZM223.932 122.681C222.666 122.681 221.639 121.655 221.639 120.389C221.639 119.125 222.666 118.098 223.932 118.098C225.199 118.098 226.225 119.125 226.225 120.389C226.225 121.655 225.199 122.681 223.932 122.681ZM216.419 114.832C215.153 114.832 214.126 113.805 214.126 112.54C214.126 111.275 215.153 110.249 216.419 110.249C217.685 110.249 218.711 111.275 218.711 112.54C218.711 113.805 217.685 114.832 216.419 114.832ZM216.419 122.681C215.153 122.681 214.126 121.655 214.126 120.389C214.126 119.125 215.153 118.098 216.419 118.098C217.685 118.098 218.711 119.125 218.711 120.389C218.711 121.655 217.685 122.681 216.419 122.681ZM208.906 114.832C207.639 114.832 206.613 113.805 206.613 112.54C206.613 111.275 207.639 110.249 208.906 110.249C210.171 110.249 211.198 111.275 211.198 112.54C211.198 113.805 210.171 114.832 208.906 114.832ZM208.906 122.681C207.639 122.681 206.613 121.655 206.613 120.389C206.613 119.125 207.639 118.098 208.906 118.098C210.171 118.098 211.198 119.125 211.198 120.389C211.198 121.655 210.171 122.681 208.906 122.681ZM201.392 122.681C200.125 122.681 199.099 121.655 199.099 120.389C199.099 119.125 200.125 118.098 201.392 118.098C202.658 118.098 203.685 119.125 203.685 120.389C203.685 121.655 202.658 122.681 201.392 122.681Z" fill="#C6B1E0"/>
<path id="Vector_7" fill-rule="evenodd" clip-rule="evenodd" d="M156.959 121.445C154.205 121.445 151.973 119.215 151.973 116.464C151.973 113.713 154.205 111.482 156.959 111.482C159.713 111.482 161.945 113.713 161.945 116.464C161.945 119.215 159.713 121.445 156.959 121.445Z" fill="#C6B1E0"/>
<path id="Vector_8" fill-rule="evenodd" clip-rule="evenodd" d="M157.682 152.202H226.323C239.665 152.202 239.665 132.05 226.323 132.05H157.682C144.34 132.05 144.34 152.202 157.682 152.202Z" fill="#456F9C"/>
<path id="Vector_9" fill-rule="evenodd" clip-rule="evenodd" d="M201.392 140.493C200.125 140.493 199.099 139.466 199.099 138.2C199.099 136.935 200.125 135.91 201.392 135.91C202.658 135.91 203.685 136.935 203.685 138.2C203.685 139.466 202.658 140.493 201.392 140.493ZM223.932 140.493C222.666 140.493 221.639 139.466 221.639 138.2C221.639 136.935 222.666 135.91 223.932 135.91C225.199 135.91 226.225 136.935 226.225 138.2C226.225 139.466 225.199 140.493 223.932 140.493ZM223.932 148.342C222.666 148.342 221.639 147.315 221.639 146.05C221.639 144.785 222.666 143.759 223.932 143.759C225.199 143.759 226.225 144.785 226.225 146.05C226.225 147.315 225.199 148.342 223.932 148.342ZM216.419 140.493C215.153 140.493 214.126 139.466 214.126 138.2C214.126 136.935 215.153 135.91 216.419 135.91C217.685 135.91 218.711 136.935 218.711 138.2C218.711 139.466 217.685 140.493 216.419 140.493ZM216.419 148.342C215.153 148.342 214.126 147.315 214.126 146.05C214.126 144.785 215.153 143.759 216.419 143.759C217.685 143.759 218.711 144.785 218.711 146.05C218.711 147.315 217.685 148.342 216.419 148.342ZM208.906 140.493C207.639 140.493 206.613 139.466 206.613 138.2C206.613 136.935 207.639 135.91 208.906 135.91C210.171 135.91 211.198 136.935 211.198 138.2C211.198 139.466 210.171 140.493 208.906 140.493ZM208.906 148.342C207.639 148.342 206.613 147.315 206.613 146.05C206.613 144.785 207.639 143.759 208.906 143.759C210.171 143.759 211.198 144.785 211.198 146.05C211.198 147.315 210.171 148.342 208.906 148.342ZM201.392 148.342C200.125 148.342 199.099 147.315 199.099 146.05C199.099 144.785 200.125 143.759 201.392 143.759C202.658 143.759 203.685 144.785 203.685 146.05C203.685 147.315 202.658 148.342 201.392 148.342Z" fill="#C6B1E0"/>
<path id="Vector_10" fill-rule="evenodd" clip-rule="evenodd" d="M156.959 147.107C154.205 147.107 151.973 144.876 151.973 142.125C151.973 139.374 154.205 137.144 156.959 137.144C159.713 137.144 161.945 139.374 161.945 142.125C161.945 144.876 159.713 147.107 156.959 147.107Z" fill="#C6B1E0"/>
<g id="Group">
<path id="Vector_11" fill-rule="evenodd" clip-rule="evenodd" d="M13.022 111.76H101.662C102.925 111.76 103.959 112.792 103.959 114.055V170.126C103.959 171.387 102.925 172.42 101.662 172.42H13.022C11.7592 172.42 10.7256 171.388 10.7256 170.126V114.055C10.7256 112.792 11.7587 111.76 13.022 111.76Z" fill="#456F9C"/>
<path id="Vector_12" fill-rule="evenodd" clip-rule="evenodd" d="M16.2485 117.181H98.4354V165.532H16.2485V117.181Z" fill="white"/>
<path id="Vector_13" fill-rule="evenodd" clip-rule="evenodd" d="M65.9316 147.599V148.515C65.9316 149.003 65.5287 149.406 65.0399 149.406H51.4927L55.1353 145.194L59.4935 140.154L63.8508 145.194L65.9316 147.599Z" fill="#56AABF"/>
<path id="Vector_14" fill-rule="evenodd" clip-rule="evenodd" d="M40.0673 147.598V148.514C40.0673 149.002 39.6644 149.404 39.1757 149.404H25.6304L29.2725 145.193L33.6303 140.154L37.987 145.193L40.0673 147.598Z" fill="#56AABF"/>
<path id="Vector_15" fill-rule="evenodd" clip-rule="evenodd" d="M0 169.348H116.579C116.526 171.921 113.613 174.476 109.232 174.51C75.2704 174.51 41.3086 174.51 7.34675 174.51C2.96562 174.476 0.0531667 171.921 0 169.348Z" fill="#5984B2"/>
<path id="Vector_16" fill-rule="evenodd" clip-rule="evenodd" d="M46.2334 169.136H68.4517C68.4278 170.399 67.1177 171.653 65.1476 171.669C49.8746 171.669 64.81 171.669 49.5375 171.669C47.567 171.653 46.2573 170.399 46.2334 169.136Z" fill="#456F9C"/>
<path id="Vector_17" fill-rule="evenodd" clip-rule="evenodd" d="M67.9348 153.346H46.75V132.023H67.9348V153.346ZM49.0601 147.15L50.2141 145.815L53.8792 141.577L57.5438 145.815L60.4792 149.209H64.7516C65.2301 149.209 65.6242 148.815 65.6242 148.337V134.55C65.6242 134.073 65.231 133.679 64.7516 133.679H49.9322C49.4527 133.679 49.0601 134.071 49.0601 134.55V147.15Z" fill="#4999AD"/>
<path id="Vector_18" fill-rule="evenodd" clip-rule="evenodd" d="M61.0775 139.008C59.9849 139.008 59.0991 138.123 59.0991 137.031C59.0991 135.94 59.9849 135.055 61.0775 135.055C62.1696 135.055 63.0559 135.94 63.0559 137.031C63.0559 138.123 62.1696 139.008 61.0775 139.008Z" fill="#56AABF"/>
<path id="Vector_19" d="M47.5074 162.853C47.1411 162.853 46.8435 162.484 46.8435 162.028C46.8435 161.574 47.1411 161.204 47.5074 161.204H67.1771C67.5429 161.204 67.8405 161.574 67.8405 162.028C67.8405 162.484 67.5429 162.853 67.1771 162.853H47.5074ZM48.3625 159.967C47.9961 159.967 47.6991 159.597 47.6991 159.143C47.6991 158.687 47.9961 158.318 48.3625 158.318H66.3221C66.6884 158.318 66.9854 158.687 66.9854 159.143C66.9854 159.597 66.6884 159.967 66.3221 159.967H48.3625ZM46.8475 157.081C46.4806 157.081 46.1836 156.711 46.1836 156.257C46.1836 155.801 46.4806 155.433 46.8475 155.433H67.8366C68.2034 155.433 68.5009 155.801 68.5009 156.257C68.5009 156.711 68.2034 157.081 67.8366 157.081H46.8475Z" fill="#56AABF"/>
<path id="Vector_20" fill-rule="evenodd" clip-rule="evenodd" d="M42.0729 153.346H20.8882V132.023H42.0729V153.346ZM23.1982 147.15L24.3523 145.815L28.0174 141.577L31.682 145.815L34.6174 149.209H38.8898C39.3683 149.209 39.7624 148.815 39.7624 148.337V134.55C39.7624 134.073 39.3692 133.679 38.8898 133.679H24.0704C23.5909 133.679 23.1982 134.071 23.1982 134.55V147.15Z" fill="#4999AD"/>
<path id="Vector_21" fill-rule="evenodd" clip-rule="evenodd" d="M35.2152 139.008C34.1226 139.008 33.2368 138.123 33.2368 137.031C33.2368 135.94 34.1226 135.055 35.2152 135.055C36.3073 135.055 37.1936 135.94 37.1936 137.031C37.1936 138.123 36.3073 139.008 35.2152 139.008Z" fill="#56AABF"/>
<path id="Vector_22" d="M21.6456 162.853C21.2793 162.853 20.9817 162.484 20.9817 162.028C20.9817 161.574 21.2793 161.204 21.6456 161.204H41.3153C41.6811 161.204 41.9787 161.574 41.9787 162.028C41.9787 162.484 41.6811 162.853 41.3153 162.853H21.6456ZM22.5006 159.967C22.1343 159.967 21.8373 159.597 21.8373 159.143C21.8373 158.687 22.1343 158.318 22.5006 158.318H40.4603C40.8266 158.318 41.1236 158.687 41.1236 159.143C41.1236 159.597 40.8266 159.967 40.4603 159.967H22.5006ZM20.9856 157.081C20.6188 157.081 20.3218 156.711 20.3218 156.257C20.3218 155.801 20.6188 155.433 20.9856 155.433H41.9748C42.3416 155.433 42.6391 155.801 42.6391 156.257C42.6391 156.711 42.3416 157.081 41.9748 157.081H20.9856Z" fill="#56AABF"/>
<path id="Vector_23" fill-rule="evenodd" clip-rule="evenodd" d="M91.4477 147.571V148.483C91.4477 148.97 91.0468 149.37 90.5595 149.37H77.0649L80.6934 145.174L85.0346 140.154L89.3752 145.174L91.4477 147.571Z" fill="#56AABF"/>
<path id="Vector_24" fill-rule="evenodd" clip-rule="evenodd" d="M93.5065 153.346H72.3218V132.023H93.5065V153.346ZM74.6318 147.15L79.451 141.577L86.051 149.209H90.3233C90.8018 149.209 91.196 148.815 91.196 148.337V134.55C91.196 134.073 90.8033 133.679 90.3233 133.679H75.5045C75.025 133.679 74.6318 134.071 74.6318 134.55V147.15Z" fill="#4999AD"/>
<path id="Vector_25" fill-rule="evenodd" clip-rule="evenodd" d="M86.6493 139.008C85.5572 139.008 84.6709 138.123 84.6709 137.031C84.6709 135.94 85.5572 135.055 86.6493 135.055C87.7419 135.055 88.6277 135.94 88.6277 137.031C88.6277 138.123 87.7419 139.008 86.6493 139.008Z" fill="#56AABF"/>
<path id="Vector_26" d="M73.0797 162.853C72.7129 162.853 72.4158 162.484 72.4158 162.028C72.4158 161.574 72.7129 161.204 73.0797 161.204H92.7489C93.1152 161.204 93.4127 161.574 93.4127 162.028C93.4127 162.484 93.1152 162.853 92.7489 162.853H73.0797ZM73.9347 159.967C73.5684 159.967 73.2709 159.597 73.2709 159.143C73.2709 158.687 73.5684 158.318 73.9347 158.318H91.8943C92.2601 158.318 92.5572 158.687 92.5572 159.143C92.5572 159.597 92.2601 159.967 91.8943 159.967H73.9347ZM72.4192 157.081C72.0529 157.081 71.7554 156.711 71.7554 156.257C71.7554 155.801 72.0529 155.433 72.4192 155.433H93.4088C93.7751 155.433 94.0727 155.801 94.0727 156.257C94.0727 156.711 93.7751 157.081 93.4088 157.081H72.4192Z" fill="#56AABF"/>
<path id="Vector_27" d="M24.1386 120.79H90.5462C92.645 120.79 94.3625 122.506 94.3625 124.603C94.3625 126.7 92.645 128.416 90.5462 128.416H24.1386C22.0392 128.416 20.3218 126.7 20.3218 124.603C20.3218 122.506 22.0392 120.79 24.1386 120.79Z" fill="#4999AD"/>
</g>
<path id="Vector_28" d="M58.4473 105.466C58.4473 106.086 57.9435 106.59 57.3225 106.59C56.7016 106.59 56.1978 106.086 56.1978 105.466V55.7762C56.1978 52.0409 57.7269 48.6454 60.1896 46.1849C62.6529 43.7245 66.0511 42.1968 69.7904 42.1968C87.6422 42.1968 161.3 42.1968 179.152 42.1968C182.89 42.1968 186.289 43.7245 188.752 46.1849C191.215 48.6459 192.744 52.0409 192.744 55.7762L192.744 75.3949C192.744 76.0152 192.241 76.5186 191.62 76.5186C190.999 76.5186 190.495 76.0152 190.495 75.3949V55.7762C190.495 52.6613 189.218 49.8281 187.162 47.7735C185.106 45.7195 182.27 44.4437 179.152 44.4437C161.3 44.4437 87.6422 44.4437 69.7904 44.4437C66.6721 44.4437 63.8362 45.7195 61.7798 47.7735C59.7238 49.8276 58.4473 52.6613 58.4473 55.7762V105.466Z" fill="#C6B1E0"/>
<path id="Vector_29" fill-rule="evenodd" clip-rule="evenodd" d="M57.2831 108.315C54.6828 108.315 52.5757 106.209 52.5757 103.611C52.5757 101.014 54.6828 98.9087 57.2831 98.9087C59.8829 98.9087 61.9911 101.014 61.9911 103.611C61.9911 106.209 59.8829 108.315 57.2831 108.315Z" fill="#C6B1E0"/>
<path id="Vector_30" fill-rule="evenodd" clip-rule="evenodd" d="M191.637 77.9632C189.036 77.9632 186.929 75.8571 186.929 73.2597C186.929 70.6628 189.036 68.5566 191.637 68.5566C194.236 68.5566 196.345 70.6628 196.345 73.2597C196.345 75.8571 194.236 77.9632 191.637 77.9632Z" fill="#C6B1E0"/>
<path id="Vector_31" d="M94.1799 52.2629C92.3781 45.5999 97.1002 30.9552 100.581 20.1613C101.632 16.9011 102.564 14.0099 103.165 11.7917C103.465 10.6689 104.481 9.92869 105.592 9.92966V9.92676H143.349C144.558 9.92676 145.567 10.7776 145.809 11.9126C146.411 14.1196 147.331 16.9718 148.366 20.1812C151.846 30.9732 156.562 45.6009 154.761 52.2629C152.759 59.6618 140.007 70.1136 131.307 77.2444C129.283 78.9032 127.488 80.3749 126.122 81.5669C125.159 82.409 123.733 82.3822 122.803 81.5508C121.443 80.3652 119.659 78.9033 117.649 77.2561C108.949 70.1258 96.1817 59.6632 94.1799 52.2629ZM105.356 21.6929C102.07 31.883 97.6119 45.7091 99.0337 50.9672C100.617 56.8217 112.639 66.6742 120.833 73.3883C122.16 74.4765 123.392 75.4862 124.471 76.3897C125.554 75.4823 126.791 74.4692 128.124 73.3767C136.316 66.662 148.323 56.8203 149.907 50.9672C151.329 45.71 146.876 31.9006 143.59 21.7128C142.775 19.1837 142.028 16.867 141.456 14.9529H107.484C106.914 16.8617 106.169 19.1715 105.356 21.6929Z" fill="#456F9C"/>
<path id="Vector_32" fill-rule="evenodd" clip-rule="evenodd" d="M96.6077 51.6144C94.483 43.7589 103.133 21.5283 105.592 12.4395H143.35C145.808 21.5317 154.46 43.755 152.334 51.6144C150.107 59.8475 131.534 73.5161 124.472 79.6815C117.41 73.5195 98.8338 59.8451 96.6077 51.6144Z" fill="white"/>
<path id="Vector_33" fill-rule="evenodd" clip-rule="evenodd" d="M116.765 36.26V30.2363C116.765 28.2033 118.425 26.5449 120.46 26.5449H128.482C130.517 26.5449 132.177 28.2033 132.177 30.2363V36.26H129.734V30.2363C129.734 29.5507 129.168 28.9859 128.482 28.9859H120.46C119.774 28.9859 119.208 29.5507 119.208 30.2363V36.26H116.765Z" fill="#7F62A3"/>
<path id="Vector_34" fill-rule="evenodd" clip-rule="evenodd" d="M133.022 54.3395H115.921C114.364 54.3395 113.091 53.0676 113.091 51.5126V38.6165C113.091 37.0615 114.364 35.7891 115.921 35.7891H133.022C134.578 35.7891 135.852 37.0615 135.852 38.6165V51.5126C135.852 53.0676 134.578 54.3395 133.022 54.3395Z" fill="#8B6CB0"/>
<path id="Vector_35" fill-rule="evenodd" clip-rule="evenodd" d="M125.692 44.9818C126.219 44.5739 126.688 44.1534 126.688 43.1568C126.688 40.2876 122.253 40.2876 122.253 43.1568C122.253 44.1534 122.722 44.5739 123.249 44.9818L122.436 49.12H126.505L125.692 44.9818Z" fill="white"/>
</g>
</g>
<defs>
<linearGradient id="paint0_linear_189_1694" x1="234.008" y1="221.255" x2="234.008" y2="-29.7451" gradientUnits="userSpaceOnUse">
<stop stop-color="#123853"/>
<stop offset="1" stop-color="#123853" stop-opacity="0"/>
</linearGradient>
</defs>
</svg>
