<svg width="218" height="198" viewBox="0 0 218 198" fill="none" xmlns="http://www.w3.org/2000/svg">
<path fill-rule="evenodd" clip-rule="evenodd" d="M216.932 117.512C222.532 0.824493 43.2666 -22.4919 5.85404 42.9895C-5.35523 62.6069 1.95176 84.4923 7.7889 90.8128C38.5743 124.144 2.9208 125.283 2.91226 153.336C2.90094 188.28 211.71 226.28 216.932 117.512Z" fill="white" fill-opacity="0.01"/>
<path fill-rule="evenodd" clip-rule="evenodd" d="M216.932 117.512C222.532 0.824493 43.2666 -22.4919 5.85404 42.9895C-5.35523 62.6069 1.95176 84.4923 7.7889 90.8128C38.5743 124.144 2.9208 125.283 2.91226 153.336C2.90094 188.28 211.71 226.28 216.932 117.512Z" fill="url(#paint0_linear_271_2)"/>
<path d="M108.222 35.8351C87.2795 35.8351 68.3205 44.3153 54.5981 58.0253C40.8748 71.7353 32.3871 90.6767 32.3871 111.6C32.3871 131.222 39.8529 149.102 52.1012 162.557L40.1807 172.301C25.7647 156.183 17 134.914 17 111.6C17 86.4336 27.2109 63.6494 43.7194 47.1568C60.2269 30.6643 83.0325 20.4629 108.222 20.4629C132.435 20.4629 155.514 29.9611 172.725 47.1573C189.234 63.6499 199.444 86.4341 199.444 111.6C199.444 134.032 191.262 155.533 176.264 172.301L164.344 162.558C177.088 148.557 184.057 130.484 184.057 111.6C184.057 90.6772 175.569 71.7353 161.846 58.0253C147.567 43.7578 128.377 35.8351 108.222 35.8351Z" fill="url(#paint1_linear_271_2)"/>
<path fill-rule="evenodd" clip-rule="evenodd" d="M88.8887 194.449C85.5772 194.449 82.8931 191.755 82.8931 188.432C82.8931 185.11 85.5772 182.417 88.8887 182.417C92.2006 182.417 94.8848 185.11 94.8848 188.432C94.8848 191.755 92.2006 194.449 88.8887 194.449Z" fill="#4999AD"/>
<path fill-rule="evenodd" clip-rule="evenodd" d="M88.1832 191.654L88.5192 188.996L86.377 189.93L88.9509 185.195L91.4014 189.992L89.2831 189.006L89.5592 191.671L88.1832 191.654Z" fill="white"/>
<path d="M102.734 184.431L104.959 191.389L107.177 184.431H110.34V194.433H107.932V192.097L108.163 187.317L105.754 194.433H104.164L101.749 187.31L101.982 192.097V194.433H99.5771V184.431H102.734ZM118.638 190.78C118.638 191.999 118.386 192.937 117.884 193.591C117.384 194.245 116.675 194.574 115.762 194.574C115.009 194.574 114.402 194.273 113.942 193.67L113.846 194.433H111.778V183.882H114.086V187.598C114.514 187.108 115.068 186.864 115.748 186.864C116.671 186.864 117.384 187.197 117.884 187.861C118.386 188.524 118.638 189.46 118.638 190.665V190.78ZM116.323 190.632C116.323 189.92 116.23 189.41 116.04 189.108C115.851 188.803 115.559 188.651 115.166 188.651C114.647 188.651 114.285 188.85 114.086 189.249V192.196C114.28 192.59 114.647 192.787 115.18 192.787C115.724 192.787 116.068 192.521 116.215 191.992C116.288 191.73 116.323 191.277 116.323 190.632ZM126.532 190.773C126.532 191.928 126.273 192.85 125.754 193.539C125.238 194.229 124.536 194.574 123.655 194.574C122.975 194.574 122.417 194.325 121.98 193.825V197.288H119.671V187.005H121.828L121.896 187.69C122.34 187.139 122.922 186.864 123.641 186.864C124.555 186.864 125.265 187.202 125.772 187.877C126.277 188.552 126.532 189.481 126.532 190.665V190.773ZM124.223 190.63C124.223 189.31 123.84 188.651 123.074 188.651C122.527 188.651 122.162 188.848 121.98 189.242V192.168C122.179 192.58 122.55 192.787 123.088 192.787C123.824 192.787 124.202 192.149 124.223 190.876V190.63ZM131.425 192.345C131.425 192.149 131.323 191.992 131.117 191.872C130.911 191.755 130.521 191.631 129.946 191.501C129.371 191.373 128.897 191.207 128.523 190.998C128.149 190.789 127.861 190.536 127.665 190.238C127.469 189.94 127.371 189.598 127.371 189.214C127.371 188.531 127.654 187.968 128.214 187.528C128.775 187.084 129.511 186.864 130.418 186.864C131.395 186.864 132.18 187.084 132.774 187.528C133.367 187.971 133.664 188.555 133.664 189.277H131.35C131.35 188.681 131.037 188.383 130.411 188.383C130.17 188.383 129.967 188.451 129.803 188.588C129.638 188.724 129.556 188.892 129.556 189.094C129.556 189.3 129.656 189.469 129.857 189.596C130.058 189.725 130.378 189.83 130.82 189.915C131.259 189.997 131.647 190.095 131.979 190.21C133.094 190.595 133.65 191.284 133.65 192.278C133.65 192.956 133.351 193.509 132.75 193.933C132.15 194.36 131.371 194.574 130.418 194.574C129.785 194.574 129.219 194.458 128.721 194.229C128.224 194.001 127.836 193.689 127.558 193.296C127.277 192.902 127.139 192.487 127.139 192.051H129.296C129.306 192.395 129.418 192.646 129.638 192.803C129.857 192.96 130.138 193.04 130.481 193.04C130.794 193.04 131.03 192.977 131.189 192.848C131.345 192.719 131.425 192.552 131.425 192.345Z" fill="#EEE3FA"/>
<path fill-rule="evenodd" clip-rule="evenodd" d="M59.5812 157.461C56.0697 157.461 53.2231 154.604 53.2231 151.081C53.2231 147.558 56.0697 144.702 59.5812 144.702C63.0921 144.702 65.9393 147.558 65.9393 151.081C65.9393 154.604 63.0921 157.461 59.5812 157.461ZM156.863 157.461C153.352 157.461 150.505 154.604 150.505 151.081C150.505 147.558 153.352 144.702 156.863 144.702C160.375 144.702 163.222 147.558 163.222 151.081C163.222 154.604 160.375 157.461 156.863 157.461Z" fill="#5984B2"/>
<path fill-rule="evenodd" clip-rule="evenodd" d="M108.222 55.04C104.711 55.04 101.863 52.1839 101.863 48.6606C101.863 45.1369 104.711 42.2808 108.222 42.2808C111.734 42.2808 114.581 45.1369 114.581 48.6606C114.581 52.1839 111.734 55.04 108.222 55.04Z" fill="#5984B2"/>
<path fill-rule="evenodd" clip-rule="evenodd" d="M70.9088 69.3623C67.3974 69.3623 64.5508 66.5052 64.5508 62.9819C64.5508 59.4587 67.3974 56.6025 70.9088 56.6025C74.4198 56.6025 77.2674 59.4587 77.2674 62.9819C77.2674 66.5052 74.4198 69.3623 70.9088 69.3623ZM145.535 69.3623C142.023 69.3623 139.177 66.5052 139.177 62.9819C139.177 59.4587 142.023 56.6025 145.535 56.6025C149.046 56.6025 151.893 59.4587 151.893 62.9819C151.893 66.5052 149.046 69.3623 145.535 69.3623Z" fill="#5984B2"/>
<path fill-rule="evenodd" clip-rule="evenodd" d="M50.6012 98.6693C47.0898 98.6693 44.2432 95.8127 44.2432 92.2895C44.2432 88.7662 47.0898 85.9102 50.6012 85.9102C54.1126 85.9102 56.9598 88.7662 56.9598 92.2895C56.9598 95.8127 54.1126 98.6693 50.6012 98.6693ZM165.843 98.6693C162.332 98.6693 159.485 95.8127 159.485 92.2895C159.485 88.7662 162.332 85.9102 165.843 85.9102C169.354 85.9102 172.202 88.7662 172.202 92.2895C172.202 95.8127 169.354 98.6693 165.843 98.6693Z" fill="#5984B2"/>
<path fill-rule="evenodd" clip-rule="evenodd" d="M47.5143 129.301C44.0028 129.301 41.1562 126.444 41.1562 122.92C41.1562 119.397 44.0028 116.541 47.5143 116.541C51.0257 116.541 53.8728 119.397 53.8728 122.92C53.8728 126.444 51.0257 129.301 47.5143 129.301ZM168.929 129.301C165.419 129.301 162.571 126.444 162.571 122.92C162.571 119.397 165.419 116.541 168.929 116.541C172.441 116.541 175.288 119.397 175.288 122.92C175.288 126.444 172.441 129.301 168.929 129.301Z" fill="#5984B2"/>
<path fill-rule="evenodd" clip-rule="evenodd" d="M23.2585 12.5585C19.8022 12.5585 17 9.74718 17 6.279C17 2.81178 19.8022 0 23.2585 0C26.7143 0 29.5161 2.81178 29.5161 6.279C29.5161 9.74718 26.7143 12.5585 23.2585 12.5585Z" fill="#4999AD"/>
<path fill-rule="evenodd" clip-rule="evenodd" d="M22.5215 2.91795L22.8717 5.6922L20.6357 4.71758L23.3224 9.65894L25.8802 4.65276L23.6692 5.68247L23.9574 2.90039L22.5215 2.91795Z" fill="white"/>
<path d="M34.877 11.2801V1.27805H38.0879C38.9688 1.27805 39.761 1.47736 40.4639 1.87793C41.1677 2.27898 41.7169 2.84426 42.1096 3.57571C42.5047 4.30716 42.7057 5.12535 42.7105 6.03273V6.49227C42.7105 7.40646 42.5159 8.23002 42.1301 8.95416C41.7447 9.68074 41.2023 10.2485 40.5019 10.6588C39.8005 11.0691 39.02 11.2752 38.1577 11.2801H34.877ZM37.2816 3.13518V9.42296H38.1158C38.805 9.42296 39.3352 9.17686 39.7054 8.68419C40.0741 8.19201 40.2585 7.46056 40.2585 6.48789V6.05612C40.2585 5.08783 40.0741 4.36077 39.7054 3.87102C39.3352 3.38079 38.7962 3.13518 38.0879 3.13518H37.2816ZM52.3791 6.48544C52.3791 7.46055 52.1995 8.32553 51.8396 9.07599C51.4796 9.8284 50.966 10.4073 50.3017 10.8132C49.6383 11.2187 48.8812 11.4209 48.033 11.4209C47.1848 11.4209 46.4303 11.2236 45.7732 10.8318C45.1167 10.4409 44.605 9.88005 44.2358 9.15104C43.8685 8.42446 43.6773 7.58726 43.6587 6.64236V6.07951C43.6587 5.09952 43.8363 4.23456 44.1958 3.4841C44.5533 2.73608 45.0679 2.15715 45.7357 1.74927C46.4039 1.34139 47.1658 1.13721 48.0189 1.13721C48.8623 1.13721 49.6173 1.33896 50.2787 1.74197C50.9396 2.14546 51.4543 2.71999 51.8235 3.46314C52.1903 4.20872 52.3747 5.06201 52.3791 6.02542V6.48544ZM49.9353 6.06344C49.9353 5.06689 49.7715 4.31155 49.4398 3.79598C49.1081 3.2804 48.6359 3.02261 48.0189 3.02261C46.8132 3.02261 46.1776 3.93 46.1102 5.74669L46.103 6.48301C46.103 7.46299 46.2639 8.21782 46.5888 8.74558C46.9117 9.27285 47.3926 9.53553 48.033 9.53553C48.6403 9.53553 49.1081 9.2753 49.4354 8.75729C49.7646 8.23927 49.9304 7.49565 49.9353 6.52249V6.06344ZM61.3457 7.54974L62.4885 1.27805H64.8694L62.7544 11.2801H60.2633L58.9269 5.57806L57.6206 11.2801H55.1345L53.0127 1.27805H55.4027L56.5456 7.54974L57.9152 1.27805H59.9546L61.3457 7.54974ZM74.132 11.2801H71.7439L68.2106 5.05518V11.2801H65.8083V1.27805H68.2106L71.7371 7.50294V1.27805H74.132V11.2801ZM78.0581 9.42296H82.2407V11.2801H75.6534V1.27805H78.0581V9.42296ZM91.2517 6.48544C91.2517 7.46055 91.0717 8.32553 90.7118 9.07599C90.3518 9.8284 89.8377 10.4073 89.1744 10.8132C88.5105 11.2187 87.7535 11.4209 86.9052 11.4209C86.057 11.4209 85.3024 11.2236 84.6454 10.8318C83.9889 10.4409 83.4772 9.88005 83.108 9.15104C82.7412 8.42446 82.5495 7.58726 82.5309 6.64236V6.07951C82.5309 5.09952 82.7085 4.23456 83.0684 3.4841C83.4255 2.73608 83.9396 2.15715 84.6083 1.74927C85.2761 1.34139 86.038 1.13721 86.8911 1.13721C87.7344 1.13721 88.489 1.33896 89.1509 1.74197C89.8118 2.14546 90.3259 2.71999 90.6957 3.46314C91.062 4.20872 91.2474 5.06201 91.2517 6.02542V6.48544ZM88.807 6.06344C88.807 5.06689 88.6441 4.31155 88.3119 3.79598C87.9798 3.2804 87.5081 3.02261 86.8911 3.02261C85.6848 3.02261 85.0493 3.93 84.982 5.74669L84.9751 6.48301C84.9751 7.46299 85.1366 8.21782 85.4605 8.74558C85.7834 9.27285 86.2653 9.53553 86.9052 9.53553C87.5125 9.53553 87.9798 9.2753 88.3071 8.75729C88.6368 8.23927 88.8022 7.49565 88.807 6.52249V6.06344ZM98.0117 9.40883H94.7193L94.1447 11.2801H91.5756L95.2334 1.27805H97.4908L101.176 11.2801H98.5936L98.0117 9.40883ZM95.2934 7.55217H97.4371L96.3621 4.07958L95.2934 7.55217ZM101.9 11.2801V1.27805H105.111C105.992 1.27805 106.784 1.47736 107.487 1.87793C108.19 2.27898 108.74 2.84426 109.132 3.57571C109.527 4.30716 109.728 5.12535 109.733 6.03273V6.49227C109.733 7.40646 109.539 8.23002 109.153 8.95416C108.767 9.68074 108.225 10.2485 107.525 10.6588C106.823 11.0691 106.043 11.2752 105.18 11.2801H101.9ZM104.304 3.13518V9.42296H105.138C105.828 9.42296 106.358 9.17686 106.728 8.68419C107.097 8.19201 107.282 7.46056 107.282 6.48789V6.05612C107.282 5.08783 107.097 4.36077 106.728 3.87102C106.358 3.38079 105.819 3.13518 105.111 3.13518H104.304Z" fill="#EEE3FA"/>
<path fill-rule="evenodd" clip-rule="evenodd" d="M135.451 12.5585C131.995 12.5585 129.193 9.74718 129.193 6.279C129.193 2.81178 131.995 0 135.451 0C138.907 0 141.709 2.81178 141.709 6.279C141.709 9.74718 138.907 12.5585 135.451 12.5585Z" fill="#8B6CB0"/>
<path fill-rule="evenodd" clip-rule="evenodd" d="M134.714 9.64138L135.065 6.86713L132.829 7.84175L135.515 2.90039L138.073 7.90655L135.862 6.87686L136.15 9.65894L134.714 9.64138Z" fill="white"/>
<path d="M154.744 1.27805V7.82604C154.744 8.56968 154.588 9.21194 154.272 9.75335C153.957 10.2977 153.506 10.7099 152.917 10.9936C152.328 11.2777 151.632 11.4209 150.83 11.4209C149.615 11.4209 148.659 11.1042 147.96 10.4736C147.261 9.84059 146.907 8.97511 146.893 7.87525V1.27805H149.309V7.92253C149.336 9.01752 149.844 9.5633 150.83 9.5633C151.325 9.5633 151.704 9.42539 151.959 9.15104C152.213 8.87668 152.341 8.42883 152.341 7.81238V1.27805H154.744ZM158.644 7.87525V11.2801H156.242V1.27805H160.219C160.981 1.27805 161.656 1.4184 162.243 1.70006C162.829 1.98124 163.283 2.37985 163.604 2.90078C163.925 3.4183 164.086 4.00699 164.086 4.66583C164.086 5.63899 163.738 6.41722 163.042 7.00102C162.346 7.58482 161.392 7.87525 160.177 7.87525H158.644ZM158.644 6.01859H160.219C160.684 6.01859 161.039 5.90164 161.282 5.66919C161.528 5.4348 161.649 5.10685 161.649 4.67996C161.649 4.21361 161.523 3.84081 161.273 3.56158C161.023 3.2804 160.679 3.13957 160.247 3.13518H158.644V6.01859ZM167.769 9.42296H171.952V11.2801H165.364V1.27805H167.769V9.42296ZM180.963 6.48544C180.963 7.46055 180.783 8.32553 180.423 9.07599C180.063 9.8284 179.549 10.4073 178.885 10.8132C178.221 11.2187 177.464 11.4209 176.617 11.4209C175.768 11.4209 175.013 11.2236 174.357 10.8318C173.7 10.4409 173.189 9.88005 172.819 9.15104C172.452 8.42446 172.261 7.58726 172.242 6.64236V6.07951C172.242 5.09952 172.419 4.23456 172.779 3.4841C173.136 2.73608 173.651 2.15715 174.319 1.74927C174.987 1.34139 175.749 1.13721 176.602 1.13721C177.446 1.13721 178.2 1.33896 178.862 1.74197C179.523 2.14546 180.038 2.71999 180.407 3.46314C180.773 4.20872 180.958 5.06201 180.963 6.02542V6.48544ZM178.518 6.06344C178.518 5.06689 178.355 4.31155 178.023 3.79598C177.691 3.2804 177.219 3.02261 176.602 3.02261C175.396 3.02261 174.761 3.93 174.693 5.74669L174.686 6.48301C174.686 7.46299 174.848 8.21782 175.172 8.74558C175.495 9.27285 175.976 9.53553 176.617 9.53553C177.224 9.53553 177.691 9.2753 178.018 8.75729C178.348 8.23927 178.514 7.49565 178.518 6.52249V6.06344ZM187.723 9.40883H184.43L183.856 11.2801H181.288L184.944 1.27805H187.202L190.887 11.2801H188.305L187.723 9.40883ZM185.005 7.55217H187.148L186.073 4.07958L185.005 7.55217ZM191.611 11.2801V1.27805H194.822C195.703 1.27805 196.496 1.47736 197.198 1.87793C197.902 2.27898 198.451 2.84426 198.844 3.57571C199.238 4.30716 199.439 5.12535 199.444 6.03273V6.49227C199.444 7.40646 199.25 8.23002 198.865 8.95416C198.479 9.68074 197.937 10.2485 197.236 10.6588C196.535 11.0691 195.754 11.2752 194.892 11.2801H191.611ZM194.015 3.13518V9.42296H194.849C195.539 9.42296 196.07 9.17686 196.439 8.68419C196.808 8.19201 196.993 7.46056 196.993 6.48789V6.05612C196.993 5.08783 196.808 4.36077 196.439 3.87102C196.07 3.38079 195.53 3.13518 194.822 3.13518H194.015Z" fill="#EEE3FA"/>
<path fill-rule="evenodd" clip-rule="evenodd" d="M103.5 102.5L109.5 90L160 115L157.5 121L103.5 102.5Z" fill="url(#paint2_linear_271_2)"/>
<path d="M80.1859 164.32L81.2911 155.06H91.8459V158.296H84.6908L84.2797 161.916C84.5762 161.737 84.9655 161.584 85.4527 161.453C85.9356 161.321 86.4097 161.253 86.8712 161.253C88.6661 161.253 90.0466 161.788 91.0079 162.855C91.9727 163.921 92.4556 165.416 92.4556 167.345C92.4556 168.508 92.1971 169.558 91.6767 170.501C91.1601 171.444 90.4363 172.17 89.5007 172.676C88.5691 173.181 87.4643 173.436 86.1898 173.436C85.0552 173.436 83.9924 173.203 83.0017 172.731C82.0106 172.264 81.2316 171.622 80.6687 170.802C80.1097 169.987 79.8303 169.061 79.8386 168.033H84.0304C84.0723 168.696 84.2841 169.222 84.6655 169.613C85.0464 170.004 85.5459 170.199 86.1639 170.199C87.5701 170.199 88.273 169.154 88.273 167.06C88.273 165.127 87.4131 164.159 85.6942 164.159C84.7162 164.159 83.9924 164.473 83.5095 165.106L80.1859 164.32ZM107.19 165.777C107.19 168.228 106.643 170.114 105.546 171.444C104.45 172.773 102.909 173.436 100.915 173.436C98.9034 173.436 97.3499 172.769 96.2495 171.431C95.1525 170.093 94.6023 168.211 94.6023 165.777V162.464C94.6023 160.013 95.1481 158.126 96.2451 156.797C97.3416 155.467 98.8868 154.805 100.89 154.805C102.892 154.805 104.442 155.471 105.542 156.809C106.639 158.148 107.19 160.034 107.19 162.476V165.777ZM103.01 161.928C103.01 160.624 102.841 159.651 102.503 159.006C102.164 158.365 101.626 158.041 100.89 158.041C100.17 158.041 99.6487 158.339 99.3229 158.938C98.9927 159.536 98.819 160.441 98.7937 161.652V166.287C98.7937 167.642 98.9629 168.632 99.3019 169.26C99.6404 169.885 100.178 170.199 100.915 170.199C101.626 170.199 102.151 169.893 102.49 169.282C102.828 168.674 103.002 167.714 103.01 166.414V161.928ZM121.902 165.777C121.902 168.228 121.356 170.114 120.259 171.444C119.163 172.773 117.622 173.436 115.627 173.436C113.616 173.436 112.062 172.769 110.962 171.431C109.865 170.093 109.315 168.211 109.315 165.777V162.464C109.315 160.013 109.861 158.126 110.958 156.797C112.054 155.467 113.599 154.805 115.602 154.805C117.605 154.805 119.154 155.471 120.255 156.809C121.351 158.148 121.902 160.034 121.902 162.476V165.777ZM117.723 161.928C117.723 160.624 117.554 159.651 117.215 159.006C116.876 158.365 116.339 158.041 115.602 158.041C114.883 158.041 114.361 158.339 114.035 158.938C113.705 159.536 113.532 160.441 113.507 161.652V166.287C113.507 167.642 113.675 168.632 114.014 169.26C114.353 169.885 114.89 170.199 115.627 170.199C116.339 170.199 116.863 169.893 117.202 169.282C117.541 168.674 117.715 167.714 117.723 166.414V161.928ZM136.615 165.777C136.615 168.228 136.068 170.114 134.972 171.444C133.875 172.773 132.334 173.436 130.34 173.436C128.329 173.436 126.775 172.769 125.674 171.431C124.578 170.093 124.027 168.211 124.027 165.777V162.464C124.027 160.013 124.574 158.126 125.67 156.797C126.767 155.467 128.312 154.805 130.315 154.805C132.317 154.805 133.867 155.471 134.968 156.809C136.064 158.148 136.615 160.034 136.615 162.476V165.777ZM132.436 161.928C132.436 160.624 132.266 159.651 131.928 159.006C131.589 158.365 131.051 158.041 130.315 158.041C129.595 158.041 129.074 158.339 128.748 158.938C128.418 159.536 128.245 160.441 128.219 161.652V166.287C128.219 167.642 128.388 168.632 128.727 169.26C129.065 169.885 129.603 170.199 130.34 170.199C131.051 170.199 131.576 169.893 131.915 169.282C132.254 168.674 132.427 167.714 132.436 166.414V161.928Z" fill="#EEE3FA"/>
<defs>
<linearGradient id="paint0_linear_271_2" x1="224.008" y1="227.328" x2="224.008" y2="-23.6719" gradientUnits="userSpaceOnUse">
<stop stop-color="#123853"/>
<stop offset="1" stop-color="#123853" stop-opacity="0"/>
</linearGradient>
<linearGradient id="paint1_linear_271_2" x1="98.5557" y1="89.1397" x2="209.025" y2="151.848" gradientUnits="userSpaceOnUse">
<stop stop-color="#C6B1E0"/>
<stop offset="0.34902" stop-color="#5984B2"/>
<stop offset="1" stop-color="#67498C"/>
</linearGradient>
<linearGradient id="paint2_linear_271_2" x1="158.5" y1="118" x2="109.5" y2="97.5" gradientUnits="userSpaceOnUse">
<stop stop-color="#C6B1E0"/>
<stop offset="1" stop-color="#C6B1E0" stop-opacity="0"/>
</linearGradient>
</defs>
</svg>
