<svg width="254" height="59" viewBox="0 0 254 59" fill="none" xmlns="http://www.w3.org/2000/svg">
<path fill-rule="evenodd" clip-rule="evenodd" d="M219.405 46.615L219.405 12.3057L250.362 12.3057L250.362 19.1106L250.461 19.109L250.461 19.109C252.088 19.109 253.418 20.4395 253.418 22.0662L253.418 36.8551C253.418 38.4817 252.088 39.8123 250.461 39.8123L250.461 39.8123L250.362 39.8106L250.362 46.615L219.405 46.615ZM223.778 43.6426L223.778 15.2786L228.77 15.2786L228.77 43.6426L223.778 43.6426ZM233.749 18.5298L233.749 18.5287C233.749 17.8034 234.341 17.2107 235.067 17.2107L245.297 17.2107C246.022 17.2107 246.615 17.8034 246.615 18.5287L246.615 18.5298C246.615 19.2551 246.022 19.8479 245.297 19.8479L235.067 19.8479C234.341 19.8479 233.749 19.2551 233.749 18.5298ZM233.749 40.3925L233.749 40.3914C233.749 39.6661 234.341 39.0734 235.067 39.0734L245.297 39.0734C246.022 39.0734 246.615 39.6661 246.615 40.3914L246.615 40.3925C246.615 41.1178 246.022 41.7106 245.297 41.7106L235.067 41.7106C234.341 41.7106 233.749 41.1178 233.749 40.3925ZM233.749 34.9269L233.749 34.9258C233.749 34.201 234.341 33.6077 235.067 33.6077L245.297 33.6077C246.022 33.6077 246.615 34.201 246.615 34.9258L246.615 34.9269C246.615 35.6522 246.022 36.2449 245.297 36.2449L235.067 36.2449C234.341 36.2449 233.749 35.6522 233.749 34.9269ZM233.749 29.4612L233.749 29.4601C233.749 28.7348 234.341 28.142 235.067 28.142L245.297 28.142C246.022 28.142 246.615 28.7348 246.615 29.4601L246.615 29.4612C246.615 30.1865 246.022 30.7792 245.297 30.7792L235.067 30.7792C234.341 30.7792 233.749 30.1865 233.749 29.4612ZM233.749 23.9955L233.749 23.9944C233.749 23.2691 234.341 22.6763 235.067 22.6763L245.297 22.6763C246.022 22.6763 246.615 23.2691 246.615 23.9944L246.615 23.9955C246.615 24.7203 246.022 25.3135 245.297 25.3135L235.067 25.3135C234.341 25.3135 233.749 24.7203 233.749 23.9955Z" fill="white"/>
<path fill-rule="evenodd" clip-rule="evenodd" d="M124 40.2461L-9.17939e-07 40.2461L0 19.2461L124 19.2461L124 40.2461Z" fill="#123853"/>
<path fill-rule="evenodd" clip-rule="evenodd" d="M176.578 0.246092L214.214 0.246093C217.616 0.246094 220.398 3.02892 220.398 6.43111L220.398 52.4895C220.398 55.8912 217.616 58.6745 214.214 58.6745L176.578 58.6745L164.998 55.0539L160.303 54.3569L160.303 42.1824C160.303 41.1686 159.474 40.34 158.461 40.34C157.448 40.34 156.619 41.1686 156.619 42.1824L156.619 53.8103L153.77 53.3876L153.77 42.1824C153.77 41.1686 152.941 40.34 151.928 40.34C150.914 40.34 150.085 41.1686 150.085 42.1824L150.085 52.8399L147.237 52.4178L147.237 42.1824C147.237 41.1686 146.408 40.34 145.394 40.34C144.381 40.34 143.552 41.1686 143.552 42.1824L143.552 51.8701L140.705 51.448L140.705 42.1824C140.705 41.1686 139.875 40.34 138.862 40.34C137.848 40.34 137.019 41.1686 137.019 42.1824L137.019 50.9009L134.171 50.4776L134.171 42.1824C134.171 41.1686 133.342 40.34 132.329 40.34C131.315 40.34 130.486 41.1686 130.486 42.1824L130.486 49.9311L122.602 48.7602L122.602 10.1598L130.486 8.989L130.486 16.7371C130.486 17.7509 131.315 18.5795 132.329 18.5795C133.342 18.5795 134.171 17.7509 134.171 16.7371L134.171 8.44298L137.019 8.01974L137.019 16.7371C137.019 17.7509 137.848 18.5795 138.862 18.5795C139.875 18.5795 140.705 17.7509 140.705 16.7371L140.705 7.47263L143.552 7.05048L143.552 16.7371C143.552 17.7509 144.381 18.5795 145.394 18.5795C146.408 18.5795 147.237 17.7509 147.237 16.7371L147.237 6.50283L150.085 6.08013L150.085 16.7371C150.085 17.7509 150.914 18.5795 151.928 18.5795C152.941 18.5795 153.77 17.7509 153.77 16.7371L153.77 5.53302L156.619 5.11033L156.619 16.7371C156.619 17.7509 157.448 18.5795 158.461 18.5795C159.474 18.5795 160.303 17.7509 160.303 16.7371L160.303 4.56376L164.998 3.8667L176.578 0.246092Z" fill="#456F9C"/>
<path fill-rule="evenodd" clip-rule="evenodd" d="M180.848 41.6983L180.848 17.2211C180.848 14.0368 183.453 11.4316 186.639 11.4316L201.903 11.4316C205.088 11.4316 207.693 14.0368 207.693 17.2211L207.693 41.6983C207.693 44.8831 205.088 47.4883 201.903 47.4883L186.639 47.4883C183.453 47.4883 180.848 44.8831 180.848 41.6983Z" fill="#2F5B8A"/>
</svg>
