<svg width="32" height="32" viewBox="0 0 32 32" fill="none" xmlns="http://www.w3.org/2000/svg">
<path fill-rule="evenodd" clip-rule="evenodd" d="M30.0001 14.0029H31.0001C31.5527 14.0029 32.0001 14.4492 32.0001 15.0039V20.9998C32.0001 21.5522 31.5527 22.0018 31.0001 22.0018H30.0001V30.0004C30.0001 31.1053 29.1056 32.0022 28.0001 32.0022H2.00007C0.8946 32.0022 0 31.1053 0 30.0004V4.00179C0.00105 1.79263 1.79113 0.00234151 4.00005 0.00234151H26.0001V0.000976562C28.209 0.00300656 30.0001 1.79263 30.0001 4.00179V14.0029ZM26.0001 2.00137H4.00005C2.89559 2.00137 2.00113 2.89705 2.00007 4.00179H28.0001C28.0001 2.89705 27.1036 2.0056 26.0001 2.00084V2.00137ZM27.0002 30.0004C27.5528 30.0004 28.0001 29.5541 28.0001 29.0036V22.0018H20C19.4474 22.0018 19.0001 21.5522 19.0001 20.9998V15.0039C19.0001 14.4492 19.4474 14.0029 20 14.0029H28.0001V7.00322C28.0001 6.44955 27.5528 6.00152 27.0002 6.00152H3.00006C2.44734 6.00152 2.00007 6.44955 2.00007 7.00322V29.0036C2.00007 29.5541 2.44734 30.0004 3.00006 30.0004H27.0002ZM21.0001 20.0014H30.0001V16.0026H21.0001V20.0014ZM24.0001 18.0024C24.0001 18.5541 23.5528 18.9991 23.0001 18.9991C22.4474 18.9991 22.0001 18.5541 22.0001 18.0024C22.0001 17.448 22.4474 17.0006 23.0001 17.0006C23.5528 17.0006 24.0001 17.448 24.0001 18.0024Z" fill="#51B18B"/>
</svg>
