<svg width="32" height="32" viewBox="0 0 32 32" fill="none" xmlns="http://www.w3.org/2000/svg">
<path fill-rule="evenodd" clip-rule="evenodd" d="M30.0015 12.0039H27.3044C27.1628 11.602 27.0016 11.2154 26.8219 10.8376L28.7283 8.93281C29.5094 8.14968 29.5094 6.88247 28.7292 6.10274L25.9001 3.27254C25.1199 2.49281 23.8532 2.49281 23.0719 3.27254L21.1647 5.18193C20.7878 5.00115 20.4002 4.83934 20.0016 4.6991V2.00302C20.0016 0.898975 19.1052 0 18.0016 0H14.0006C12.8971 0 12.0016 0.898975 12.0016 2.00302V4.6991C11.6032 4.83934 11.2155 5.00115 10.8385 5.18193L8.93137 3.27254C8.1501 2.49281 6.88254 2.49281 6.10218 3.27254L3.2732 6.10274C2.49281 6.88247 2.49281 8.14968 3.27411 8.93214L5.18126 10.8376C5.00157 11.2154 4.84047 11.602 4.69889 12.0039H2.00162C0.897158 12.0039 0.00164795 12.8954 0.00164795 14.0011V18.0014C0.00164795 19.1064 0.897158 20.0011 2.00162 20.0011H4.69889C4.84047 20.3995 5.00157 20.7871 5.18228 21.1642L3.2732 23.0743C2.4919 23.8533 2.4919 25.124 3.2732 25.9018L6.10124 28.7286C6.88254 29.5117 8.14916 29.5117 8.92941 28.7286L10.8385 26.8219C11.2165 26.9999 11.6032 27.1622 12.0016 27.3024V30.0014C12.0007 31.1055 12.8971 32.0032 14.0016 32.0025L18.0016 32.0032C19.1061 32.0025 20.0016 31.1055 20.0016 30.0014V27.3024C20.4002 27.1622 20.7869 26.9999 21.1647 26.8219L23.0729 28.7286C23.8532 29.5117 25.1209 29.5117 25.901 28.7286L28.7301 25.9018C29.5104 25.1213 29.5104 23.8533 28.7301 23.0743L26.821 21.1642C27.0016 20.7871 27.1628 20.3995 27.3044 20.0011H30.0015C31.1061 20.0011 32.0016 19.1064 32.0016 18.0014V14.0011C32.0016 12.8954 31.1061 12.0039 30.0015 12.0039ZM30.0015 17.0009C30.0015 17.5536 29.5544 18.0014 29.0016 18.0014H27.8219H25.8005C25.5417 19.2787 25.0369 20.4617 24.3415 21.5115L25.7751 22.9477L26.6091 23.7804C26.9996 24.1705 26.9996 24.8051 26.6091 25.1924L25.194 26.6085C24.8034 26.9987 24.1707 26.9987 23.78 26.6085L22.9469 25.7752L21.5133 24.3396C20.4636 25.0358 19.2781 25.5395 18.0016 25.7989V27.8192V29.0046C18.0016 29.5551 17.5544 30.0014 17.0016 30.0014H15.0017C14.4489 30.0014 14.0016 29.5528 14.0016 29.0046V27.8192V25.7989C12.7253 25.5395 11.5397 25.0358 10.49 24.3396L9.05636 25.7752L8.22231 26.6085C7.83171 26.9999 7.19898 26.9999 6.80838 26.6085L5.39424 25.1948C5.00364 24.8051 5.00364 24.1705 5.39424 23.7804L6.22829 22.9477L7.66178 21.5115C6.96654 20.4617 6.46163 19.2787 6.20277 18.0014H4.18128H3.0016C2.44888 18.0014 2.00162 17.5536 2.00162 17.0009V15.0018C2.00162 14.4475 2.44888 14.0011 3.0016 14.0011H4.18128H6.20277C6.46163 12.7235 6.96654 11.5385 7.66084 10.4898L6.22724 9.05807L5.39525 8.22349C5.00364 7.83398 5.00469 7.2016 5.39525 6.80907L6.8102 5.39466C7.2008 5.00444 7.83276 5.00252 8.22437 5.39466L9.05636 6.22797L10.49 7.66357C11.5387 6.96735 12.7253 6.45925 14.0016 6.20193V4.18092V3.00279C14.0006 2.4494 14.4489 2.00302 15.0017 2.00302H17.0016C17.5544 2.00302 18.0016 2.4494 18.0016 3.00279V4.18092V6.20193C19.2781 6.45925 20.4645 6.96735 21.5133 7.66357L22.9469 6.22797L23.779 5.39466C24.1696 5.00252 24.8025 5.00444 25.193 5.39532L26.6071 6.80907C26.9977 7.2016 26.9987 7.83398 26.6071 8.22472L25.776 9.05807L24.3424 10.4898C25.0369 11.5385 25.5417 12.7235 25.8005 14.0011H27.8219H29.0016C29.5544 14.0011 30.0015 14.4475 30.0015 15.0018V17.0009ZM16.0017 10.0007C12.6881 10.0007 10.0016 12.6853 10.0016 16.0015C10.0016 19.3159 12.6881 22.0028 16.0017 22.0028C19.3151 22.0028 22.0016 19.3159 22.0016 16.0015C22.0016 12.6853 19.3151 10.0007 16.0017 10.0007ZM16.0017 20.0011C13.7926 20.0011 12.0016 18.2101 12.0016 16.0015C12.0016 13.7923 13.7926 12.0039 16.0017 12.0039C18.2107 12.0039 20.0016 13.7923 20.0016 16.0015C20.0016 18.2101 18.2107 20.0011 16.0017 20.0011Z" fill="#5984B3"/>
</svg>
