<svg width="16" height="16" viewBox="0 0 16 16" fill="none" xmlns="http://www.w3.org/2000/svg">
<path fill-rule="evenodd" clip-rule="evenodd" d="M7.99999 0C3.59997 0 0 3.60001 0 8.00003C0 12.4005 3.59997 16.0001 7.99999 16.0001C12.4 16.0001 16 12.4005 16 8.00003C16 3.60001 12.4 0 7.99999 0ZM13.9 7.00085H11.9C11.7 5.30022 11.1 3.80002 10.3 2.50021C12.2 3.30022 13.5999 5.00044 13.9 7.00085ZM7.99999 13.3007C7 12.0998 6.29996 10.7007 6.09993 9.00045H9.99997C9.70001 10.7007 8.99998 12.0998 7.99999 13.3007ZM6.09993 7.00085C6.29996 5.40003 7 3.89939 7.99999 2.79959C8.99998 3.89939 9.70001 5.40003 9.89993 7.00085H6.09993ZM5.69996 2.50021C4.79999 3.80002 4.19997 5.40003 3.99994 7.00085H1.99996C2.39993 5.00044 3.8 3.30022 5.69996 2.50021ZM2.09999 9.00045H4.09995C4.3 10.7007 4.90001 12.2005 5.69996 13.5003C3.8 12.8001 2.39993 11.1003 2.09999 9.00045ZM10.3 13.6C11.2 12.3003 11.8 10.7007 11.9 9.10024H13.9C13.5999 11.1003 12.2 12.8001 10.3 13.6Z" fill="white"/>
</svg>
