<svg width="64" height="64" viewBox="0 0 64 64" fill="none" xmlns="http://www.w3.org/2000/svg">
<path fill-rule="evenodd" clip-rule="evenodd" d="M16 0H60C62.2109 0 63.9999 1.78722 63.9999 3.99997V31.9985C63.9999 34.2092 62.2109 35.9978 60 35.9978H54V43.9984C54 46.2112 52.2108 47.9984 50 47.9984H34.6563C33.5 47.9984 32.9844 48.6715 32.9844 48.6715L18.8281 62.828C18.0625 63.5937 17.039 63.9977 16 63.9977C15.4844 63.9977 14.9648 63.9017 14.4688 63.6952C12.9727 63.0769 12 61.6152 12 59.9991V48.9998C12 48.4449 11.5527 47.9984 11 47.9984H3.99997C1.7891 47.9984 0 46.2112 0 43.9984V13.9986C0 11.7865 1.7891 9.99995 3.99997 9.99995H12V3.99997C12 1.78722 13.789 0 16 0ZM50 45.9999C51.1055 45.9999 51.9999 45.1041 51.9999 43.9984V13.9986C51.9999 12.8935 51.1055 11.9993 50 11.9993H3.99997C2.89447 11.9993 2.00002 12.8935 2.00002 13.9986V43.9984C2.00002 45.1041 2.89447 45.9999 3.99997 45.9999H12C13.1055 45.9999 14.0001 46.8941 14.0001 47.9984V59.9991C14.0001 61.3899 15.8594 63.1395 18 60.9983L32 46.9991C32 46.9991 32.7089 45.9999 34.6563 45.9999H50ZM60 33.9991C61.1055 33.9991 62 33.1035 62 31.9985V3.99997C62 2.89219 61.1055 1.99861 60 1.99861H16C14.8945 1.99861 14.0001 2.89219 14.0001 3.99997V9.99995H50C52.2108 9.99995 54 11.7865 54 13.9986V33.9991H60ZM26 23.9992H13.0001C12.4473 23.9992 12 23.5507 12 22.9986C12 22.4457 12.4473 21.9978 13.0001 21.9978H26C26.5527 21.9978 26.9999 22.4457 26.9999 22.9986C26.9999 23.5507 26.5527 23.9992 26 23.9992ZM41 27.9992H13.0001C12.4473 27.9992 12 28.4457 12 28.9978C12 29.552 12.4473 29.9992 13.0001 29.9992H41C41.5527 29.9992 42 29.552 42 28.9978C42 28.4457 41.5527 27.9992 41 27.9992ZM13.0001 33.9991H34C34.5527 33.9991 34.9999 34.4456 34.9999 34.9999C34.9999 35.552 34.5527 35.9978 34 35.9978H13.0001C12.4473 35.9978 12 35.552 12 34.9999C12 34.4456 12.4473 33.9991 13.0001 33.9991Z" fill="#56AABF"/>
</svg>
