<svg width="218" height="188" viewBox="0 0 218 188" fill="none" xmlns="http://www.w3.org/2000/svg">
<path fill-rule="evenodd" clip-rule="evenodd" d="M216.932 115.758C222.532 -0.929413 43.2666 -24.2458 5.85404 41.2356C-5.35523 60.853 1.95176 82.7384 7.7889 89.0589C38.5743 122.39 2.9208 123.529 2.91226 151.582C2.90094 186.526 211.71 224.526 216.932 115.758Z" fill="white" fill-opacity="0.01"/>
<path fill-rule="evenodd" clip-rule="evenodd" d="M216.932 115.758C222.532 -0.929413 43.2666 -24.2458 5.85404 41.2356C-5.35523 60.853 1.95176 82.7384 7.7889 89.0589C38.5743 122.39 2.9208 123.529 2.91226 151.582C2.90094 186.526 211.71 224.526 216.932 115.758Z" fill="url(#paint0_linear_189_1695)"/>
<path fill-rule="evenodd" clip-rule="evenodd" d="M78.1589 112.324C77.3111 113.658 86.8616 104.877 89.5175 104.733C102.347 104.032 116.72 103.341 128.692 107.883C153.713 117.376 161.566 112.9 146.373 89.0078C139.59 78.341 145.825 66.531 149.497 55.1421C158.349 27.6816 140.937 1.87651 112.443 1.04954C93.7362 0.506189 61.0967 11.9673 72.4222 49.0078C77.4921 65.5871 80.7948 76.9307 77.456 84.2891C66.8563 107.646 87.9415 96.9232 78.1589 112.324Z" fill="#4999AD"/>
<path fill-rule="evenodd" clip-rule="evenodd" d="M127.47 96.6966L120.085 115.585L108.023 119.008L94.3331 114.523L88.8696 96.4364L101.467 94.1494L101.487 82.8682H115.016L115.039 94.7059L127.47 96.6966Z" fill="white"/>
<path fill-rule="evenodd" clip-rule="evenodd" d="M84.0951 36.1712C98.1765 16.479 115.127 14.6627 134.06 32.0963C144.577 104.092 72.7281 110.067 84.0951 36.1712Z" fill="white"/>
<path fill-rule="evenodd" clip-rule="evenodd" d="M79.9226 47.4457C98.1042 27.7895 127.976 54.6258 126.398 31.6373C131.943 38.7087 135.902 50.949 134.001 65.6819C138.458 57.6549 139.188 52.6829 138.464 41.9415C136.71 21.1382 126.659 14.3451 113.536 13.3598C84.8242 11.202 77.3267 27.4036 79.9226 47.4457Z" fill="#4999AD"/>
<path d="M100.874 90.9371H114.859C115.657 90.9371 116.31 90.0317 116.31 88.9255V87.3822C129.906 87.9217 143.248 81.531 151.532 68.1816H146.331C138.254 78.6681 128.01 83.6221 116.31 83.1348V82.3025C116.31 81.1963 115.656 80.2908 114.859 80.2908H100.874C100.078 80.2908 99.4238 81.1982 99.4238 82.3025V88.9255C99.4238 90.0303 100.076 90.9371 100.874 90.9371Z" fill="#456F9C"/>
<path d="M66.0135 31.5635C80.0978 -11.3691 142.937 -9.68103 152.301 33.6814H145.639C136.757 -1.54001 84.335 -2.1287 72.2867 32.8456C70.7804 36.9395 64.7419 35.8743 66.0135 31.5635Z" fill="#456F9C"/>
<path d="M152.114 68.4668H144.816C143.342 68.4668 142.08 67.5 141.637 66.1696C143.121 65.827 144.236 64.4918 144.236 62.909V38.7335C144.236 37.1508 143.121 35.816 141.637 35.4735C142.08 34.1426 143.34 33.1758 144.816 33.1758H152.114C153.955 33.1758 155.462 34.684 155.462 36.5207V65.1219C155.462 66.9591 153.952 68.4668 152.114 68.4668Z" fill="#5984B2"/>
<path fill-rule="evenodd" clip-rule="evenodd" d="M156.045 169.02H62.0125C58.8957 169.02 56.9856 167.314 55.5643 165.639L50.1647 159.297C48.7443 157.623 48.0892 155.827 56.6174 155.827H161.441C169.97 155.827 169.27 157.563 167.854 159.23L162.458 165.571C161.036 167.244 159.168 169.02 156.045 169.02Z" fill="#C6B1E0"/>
<path fill-rule="evenodd" clip-rule="evenodd" d="M65.9505 172.121C108.152 172.436 111.64 173.964 155.311 172.458C167.178 170.058 164.484 149.771 162.59 133.915C159.9 111.382 148.522 98.0544 124.465 96.2139C121.395 120.979 93.7527 121.6 90.0764 96.2178C68.6507 97.9692 55.7546 115.714 55.8795 135.196C55.98 150.853 49.0878 165.389 65.9505 172.121Z" fill="#456F9C"/>
<path fill-rule="evenodd" clip-rule="evenodd" d="M152.345 169.019H65.7124C62.8307 169.019 60.721 166.639 60.4674 163.757L55.4951 107.628C55.2414 104.746 57.8549 102.365 60.7401 102.365H157.318C160.203 102.365 162.816 104.75 162.562 107.628L157.59 163.757C157.337 166.639 155.229 169.019 152.345 169.019Z" fill="#C6B1E0"/>
<path fill-rule="evenodd" clip-rule="evenodd" d="M109.028 142.415C105.326 142.415 102.327 139.405 102.327 135.692C102.327 131.979 105.326 128.968 109.028 128.968C112.73 128.968 115.729 131.979 115.729 135.692C115.729 139.405 112.73 142.415 109.028 142.415Z" fill="#EEE3FA"/>
<path fill-rule="evenodd" clip-rule="evenodd" d="M17.3124 166.33H200.715C203.087 166.33 205.028 168.269 205.028 170.638V170.639C205.028 173.008 203.086 174.947 200.715 174.947H17.3124C14.9408 174.947 13 173.009 13 170.639V170.638C13 168.269 14.9403 166.33 17.3124 166.33Z" fill="#5984B2"/>
<path fill-rule="evenodd" clip-rule="evenodd" d="M25.5884 131.997L28.5764 131.212L33.2122 148.826L30.2236 149.611L25.5884 131.997Z" fill="#456F9C"/>
<path fill-rule="evenodd" clip-rule="evenodd" d="M40.4815 119.878L43.6169 120.421L38.5509 149.691L35.416 149.148L40.4815 119.878Z" fill="#456F9C"/>
<path fill-rule="evenodd" clip-rule="evenodd" d="M27.5112 128.98L30.8827 128.375L34.4556 148.248L31.0842 148.853L27.5112 128.98Z" fill="#9272B8"/>
<path fill-rule="evenodd" clip-rule="evenodd" d="M33.9052 125.998L37.9117 126.095L37.3361 149.711L33.3296 149.614L33.9052 125.998Z" fill="#4999AD"/>
<path fill-rule="evenodd" clip-rule="evenodd" d="M45.6816 129.375L48.8824 130.313L43.3433 149.182L40.1421 148.244L45.6816 129.375Z" fill="#4999AD"/>
<path fill-rule="evenodd" clip-rule="evenodd" d="M42.7708 168.839H30.6707C28.5363 168.839 26.7871 167.093 26.7871 164.959V142.038H46.6544V164.959C46.6544 167.091 44.9053 168.839 42.7708 168.839Z" fill="#C6B1E0"/>
<path fill-rule="evenodd" clip-rule="evenodd" d="M180.962 147.678C176.719 147.678 173.28 141.907 173.28 134.788C173.28 127.67 176.719 121.898 180.962 121.898C185.205 121.898 188.644 127.67 188.644 134.788C188.644 141.907 185.205 147.678 180.962 147.678Z" fill="#56AABF"/>
<path fill-rule="evenodd" clip-rule="evenodd" d="M178.446 126.453C178.715 126.838 178.228 127.641 177.359 128.248C176.489 128.855 175.566 129.035 175.297 128.651C175.028 128.266 175.515 127.462 176.385 126.855C177.254 126.248 178.177 126.068 178.446 126.453Z" fill="#4999AD"/>
<path fill-rule="evenodd" clip-rule="evenodd" d="M174.419 124.106C174.973 125.413 175.526 126.72 176.08 128.027C176.439 128.122 177.429 127.435 177.465 127.084L174.419 124.106Z" fill="white"/>
<path fill-rule="evenodd" clip-rule="evenodd" d="M182.335 122.598C182.388 123.064 181.576 123.539 180.522 123.659C179.469 123.779 178.571 123.498 178.518 123.032C178.465 122.565 179.277 122.091 180.331 121.971C181.384 121.851 182.282 122.132 182.335 122.598Z" fill="#4999AD"/>
<path fill-rule="evenodd" clip-rule="evenodd" d="M179.914 118.617C179.777 120.029 179.64 121.442 179.504 122.854C179.774 123.109 180.972 122.976 181.172 122.684L179.914 118.617Z" fill="white"/>
<path fill-rule="evenodd" clip-rule="evenodd" d="M186.262 127.36C186.056 127.782 185.116 127.746 184.163 127.28C183.211 126.814 182.605 126.095 182.812 125.673C183.018 125.252 183.958 125.288 184.911 125.753C185.864 126.219 186.468 126.939 186.262 127.36Z" fill="#4999AD"/>
<path fill-rule="evenodd" clip-rule="evenodd" d="M186.366 122.705C185.49 123.822 184.614 124.939 183.738 126.056C183.828 126.416 184.909 126.948 185.234 126.81L186.366 122.705Z" fill="white"/>
<path fill-rule="evenodd" clip-rule="evenodd" d="M187.94 136.056C187.611 136.391 186.73 136.061 185.973 135.319C185.216 134.577 184.868 133.704 185.197 133.369C185.526 133.034 186.407 133.364 187.164 134.106C187.921 134.848 188.269 135.721 187.94 136.056Z" fill="#4999AD"/>
<path fill-rule="evenodd" clip-rule="evenodd" d="M189.506 131.668C188.322 132.453 187.139 133.238 185.955 134.022C185.927 134.392 186.785 135.237 187.138 135.208L189.506 131.668Z" fill="white"/>
<path fill-rule="evenodd" clip-rule="evenodd" d="M177.597 140.038C177.976 140.317 177.773 141.234 177.144 142.087C176.516 142.941 175.699 143.407 175.321 143.13C174.943 142.851 175.146 141.934 175.775 141.081C176.403 140.227 177.219 139.76 177.597 140.038Z" fill="#4999AD"/>
<path fill-rule="evenodd" clip-rule="evenodd" d="M173.03 139.106C173.974 140.166 174.918 141.227 175.862 142.287C176.233 142.263 176.949 141.294 176.871 140.95L173.03 139.106Z" fill="white"/>
<path fill-rule="evenodd" clip-rule="evenodd" d="M186.714 142.775C186.311 143.016 185.542 142.476 184.996 141.568C184.449 140.659 184.333 139.727 184.735 139.485C185.137 139.244 185.907 139.784 186.453 140.692C186.999 141.601 187.116 142.533 186.714 142.775Z" fill="#4999AD"/>
<path fill-rule="evenodd" clip-rule="evenodd" d="M189.334 138.923C187.99 139.385 186.648 139.847 185.304 140.309C185.184 140.661 185.803 141.694 186.151 141.754L189.334 138.923Z" fill="white"/>
<path fill-rule="evenodd" clip-rule="evenodd" d="M175.882 133.014C176.272 133.274 176.112 134.2 175.524 135.082C174.936 135.964 174.143 136.468 173.752 136.208C173.361 135.948 173.521 135.022 174.109 134.14C174.697 133.258 175.49 132.754 175.882 133.014Z" fill="#4999AD"/>
<path fill-rule="evenodd" clip-rule="evenodd" d="M171.275 132.299C172.268 133.314 173.261 134.329 174.253 135.344C174.622 135.303 175.293 134.302 175.199 133.962L171.275 132.299Z" fill="white"/>
<path fill-rule="evenodd" clip-rule="evenodd" d="M182.723 131.761C182.647 132.224 181.737 132.461 180.69 132.29C179.644 132.119 178.856 131.604 178.932 131.141C179.008 130.679 179.918 130.442 180.965 130.613C182.012 130.784 182.799 131.298 182.723 131.761Z" fill="#4999AD"/>
<path fill-rule="evenodd" clip-rule="evenodd" d="M181.477 127.271C180.961 128.593 180.445 129.916 179.929 131.238C180.119 131.556 181.308 131.753 181.579 131.527L181.477 127.271Z" fill="white"/>
<path fill-rule="evenodd" clip-rule="evenodd" d="M183.006 137.297C183.181 137.733 182.525 138.406 181.541 138.801C180.557 139.196 179.617 139.163 179.442 138.728C179.267 138.292 179.923 137.619 180.907 137.224C181.891 136.829 182.832 136.862 183.006 137.297Z" fill="#4999AD"/>
<path fill-rule="evenodd" clip-rule="evenodd" d="M179.614 134.102C179.858 135.5 180.102 136.898 180.346 138.296C180.674 138.471 181.793 138.024 181.908 137.691L179.614 134.102Z" fill="white"/>
<path fill-rule="evenodd" clip-rule="evenodd" d="M187.512 167.55C187.388 168.32 174.085 168.453 173.907 167.55L171.247 145.99H190.172C189.285 153.177 188.399 160.363 187.512 167.55Z" fill="#C6B1E0"/>
<path fill-rule="evenodd" clip-rule="evenodd" d="M169.098 144.467H192.321V148.569H169.098V144.467Z" fill="#9272B8"/>
<defs>
<linearGradient id="paint0_linear_189_1695" x1="224.008" y1="225.574" x2="224.008" y2="-25.4258" gradientUnits="userSpaceOnUse">
<stop stop-color="#123853"/>
<stop offset="1" stop-color="#123853" stop-opacity="0"/>
</linearGradient>
</defs>
</svg>
